<?xml version="1.0" encoding="UTF-8" standalone="no"?>
<svg width="62px" height="71px" viewBox="0 0 62 71" version="1.1" xmlns="http://www.w3.org/2000/svg" xmlns:xlink="http://www.w3.org/1999/xlink" xmlns:sketch="http://www.bohemiancoding.com/sketch/ns">
    <!-- Generator: Sketch 3.3.3 (12072) - http://www.bohemiancoding.com/sketch -->
    <title>Shape</title>
    <desc>Created with Sketch.</desc>
    <defs></defs>
    <g id="Page-1" stroke="none" stroke-width="1" fill="none" fill-rule="evenodd" sketch:type="MSPage">
        <g id="about" sketch:type="MSArtboardGroup" transform="translate(-689.000000, -2458.000000)" stroke="#FFFFFF" stroke-width="0.3" fill="#E94B44">
            <path d="M749.833672,2523.06506 C749.449335,2524.53614 748.284274,2525.63735 746.792708,2525.94096 C741.050539,2527.10843 731.725238,2528.5 719.908371,2528.5 C707.839696,2528.5 698.714395,2527.13253 693.184274,2525.98554 C691.691503,2525.6759 690.532467,2524.56627 690.158973,2523.08916 C689.785479,2521.61084 690.27825,2520.08313 691.444515,2519.1 C695.450539,2515.7253 700.862588,2513.43494 707.526443,2512.29518 C707.997527,2512.0747 709.132467,2510.00361 708.44813,2507.4759 C707.64572,2506.3241 703.650539,2500.4 703.097527,2495.94699 C701.07825,2494.39518 701.246925,2491.16145 701.361383,2488.95904 C701.384274,2488.51566 701.405961,2488.10964 701.405961,2487.76386 C701.405961,2487.03614 701.622829,2486.41566 701.924033,2485.89277 C701.992708,2485.71928 702.101142,2485.57108 702.236082,2485.44699 C702.469817,2485.13133 702.7156,2484.84217 702.950539,2484.60964 C702.660178,2484.00843 702.389094,2483.66988 702.142106,2483.36265 C701.834877,2482.97831 701.486684,2482.54337 701.316804,2481.84578 C699.602347,2474.75301 702.687889,2469.33855 710.489094,2465.74819 C710.654154,2465.2241 710.722829,2463.86747 710.766202,2463.02651 C710.88066,2460.77711 710.971021,2459 712.54572,2459 C712.822829,2459 713.242106,2459.08554 713.660178,2459.49036 C716.192708,2461.94337 722.373431,2463.51205 726.067407,2464.4506 C727.273431,2464.75663 728.226443,2464.9988 728.821624,2465.20964 C735.720419,2467.65904 739.667407,2473.75663 738.875841,2480.74337 C738.650539,2482.74699 738.146925,2483.78193 737.814395,2484.46747 C737.725238,2484.6506 737.624033,2484.85904 737.61078,2484.93855 C737.586684,2485.06747 737.543311,2485.19036 737.481865,2485.30241 C737.516804,2485.34819 737.549335,2485.40241 737.584274,2485.4506 C737.730057,2485.58434 737.836082,2485.75301 737.902347,2485.94458 C738.190298,2486.45783 738.401142,2487.05663 738.401142,2487.76386 C738.401142,2488.11446 738.424033,2488.5241 738.44813,2488.96867 C738.566202,2491.13735 738.738491,2494.3253 736.720419,2495.93012 C736.177045,2500.36265 732.192708,2506.26386 731.358973,2507.45904 C730.824033,2509.81807 731.631262,2511.67108 732.157768,2512.17831 C732.163792,2512.18072 732.171021,2512.17952 732.177045,2512.18193 C732.251744,2512.21446 732.305961,2512.27108 732.371021,2512.31687 C739.081865,2513.3241 744.561383,2515.60361 748.590298,2519.07952 C749.739696,2520.06988 750.216804,2521.59759 749.833672,2523.06506 L749.833672,2523.06506 Z M728.014395,2467.48072 C727.525238,2467.30602 726.574636,2467.06506 725.473431,2466.78554 C721.805961,2465.85542 716.493913,2464.50602 713.224033,2462.23012 C713.202347,2462.54819 713.186684,2462.8747 713.172226,2463.1494 C713.054154,2465.45663 712.961383,2467.27711 711.724033,2467.83373 C705.136082,2470.79518 702.492708,2474.78193 703.463792,2480.31928 C704.104756,2479.76265 704.942106,2479.39036 705.808371,2479.01446 C706.291503,2478.80482 706.831262,2478.57108 707.421624,2478.2759 C708.256564,2477.85904 708.984274,2477.36145 709.754154,2476.83494 C711.368612,2475.73012 713.039696,2474.58795 715.630057,2474.29036 C716.166202,2474.23373 716.672226,2474.52771 716.879455,2475.0241 C717.085479,2475.51807 716.939696,2476.09036 716.521624,2476.42651 C714.920419,2477.71446 714.660178,2479.67349 714.984274,2481.16145 C719.375841,2478.4253 723.050539,2479.09639 726.326443,2479.69398 C728.555359,2480.1 730.661383,2480.48554 732.808371,2479.7241 C734.028853,2479.29157 735.452949,2479.49518 736.498732,2480.21807 C737.158973,2473.29518 732.577045,2469.1 728.014395,2467.48072 L728.014395,2467.48072 Z M705.561383,2485.12651 L706.655359,2485.12651 L709.064997,2485.12651 L719.908371,2485.12651 L730.751744,2485.12651 L733.161383,2485.12651 L734.266202,2485.12651 C734.238491,2484.98072 734.21319,2484.83373 734.240901,2484.68313 C734.385479,2483.90602 734.931262,2483.39157 735.650539,2483.31446 C735.639696,2482.83976 735.499937,2482.45663 735.18066,2482.21566 C734.768612,2481.90482 734.124033,2481.81446 733.614395,2481.99518 C730.861383,2482.97229 728.336082,2482.51084 725.893913,2482.06506 C722.486684,2481.44337 719.269817,2480.85542 715.138491,2483.97831 C714.863792,2484.18795 714.511985,2484.26747 714.174636,2484.1988 C713.837286,2484.13133 713.544515,2483.92169 713.371021,2483.6241 C712.538491,2482.19639 712.105961,2479.89036 712.803551,2477.73373 C712.236082,2478.05663 711.690298,2478.43012 711.114395,2478.82289 C710.31078,2479.37229 709.48066,2479.94096 708.499937,2480.43133 C707.866202,2480.74819 707.285479,2481 706.767407,2481.2253 C705.04813,2481.97108 704.760178,2482.17108 704.737286,2482.86265 C704.985479,2483.27229 705.250539,2483.78795 705.509576,2484.47952 C705.589094,2484.69036 705.602347,2484.91325 705.561383,2485.12651 L705.561383,2485.12651 Z M707.860178,2487.53614 L707.860178,2491.1506 C707.860178,2493.14337 709.481865,2494.76506 711.474636,2494.76506 L714.533672,2494.76506 C715.985479,2494.76506 717.334877,2494.04337 718.140901,2492.83373 L718.703551,2491.99036 L718.703551,2487.53614 L709.064997,2487.53614 L707.860178,2487.53614 L707.860178,2487.53614 Z M721.11319,2487.53614 L721.11319,2491.99036 L721.675841,2492.83373 C722.48066,2494.04337 723.830057,2494.76506 725.28307,2494.76506 L728.342106,2494.76506 C730.334877,2494.76506 731.956564,2493.14337 731.956564,2491.1506 L731.956564,2487.53614 L730.751744,2487.53614 L721.11319,2487.53614 L721.11319,2487.53614 Z M734.367407,2495.19398 C734.386684,2494.77349 734.625238,2494.39277 734.996323,2494.19157 C736.28066,2493.49518 736.143311,2490.95422 736.042106,2489.1 C736.0156,2488.60723 735.991503,2488.15181 735.991503,2487.76386 C735.991503,2487.68554 735.958973,2487.61205 735.943311,2487.53614 L734.366202,2487.53614 L734.366202,2491.1506 C734.366202,2494.47229 731.663792,2497.1747 728.342106,2497.1747 L725.28307,2497.1747 C723.154154,2497.1747 721.179455,2496.16988 719.908371,2494.48313 C718.636082,2496.16988 716.661383,2497.1747 714.533672,2497.1747 L711.474636,2497.1747 C708.152949,2497.1747 705.450539,2494.47229 705.450539,2491.1506 L705.450539,2487.53614 L703.864997,2487.53614 C703.84813,2487.61205 703.8156,2487.68554 703.8156,2487.76386 C703.8156,2488.14578 703.792708,2488.59518 703.767407,2489.08434 C703.675841,2490.86145 703.536082,2493.54578 704.786684,2494.1747 C705.175841,2494.36988 705.428853,2494.75904 705.449335,2495.19398 C705.608371,2498.59759 709.060178,2504.16747 710.474636,2506.17229 C715.204756,2510.43253 717.4156,2511.09518 718.108371,2511.18795 C718.508371,2511.03133 719.197527,2510.80482 720.101142,2510.80482 C720.968612,2510.80482 721.658973,2511.00361 722.062588,2511.14699 C723.127648,2510.74217 726.708371,2508.84578 729.295118,2506.20482 C729.814395,2505.46627 734.18307,2499.13253 734.367407,2495.19398 L734.367407,2495.19398 Z M711.807166,2522.46988 C712.721624,2522.38434 715.334877,2521.25301 717.901142,2519.96506 C715.299937,2518.61687 712.687889,2517.42169 711.784274,2517.25783 C711.24572,2517.72651 710.921624,2518.71928 710.944515,2519.8759 C710.968612,2521.11205 711.38307,2522.11205 711.807166,2522.46988 L711.807166,2522.46988 Z M711.696323,2522.4759 L711.705961,2523.68072 L711.705961,2522.4759 L711.696323,2522.4759 L711.696323,2522.4759 Z M711.891503,2514.86747 C713.686684,2515.06747 717.892708,2517.21325 720.125238,2518.41205 C722.18066,2517.30723 725.937286,2515.38072 727.918009,2514.92892 C728.97825,2514.43614 729.675841,2513.91687 730.109576,2513.46145 C730.043311,2513.3747 729.974636,2513.3012 729.911985,2513.20602 C729.389094,2512.42048 728.942106,2511.24458 728.808371,2509.83976 C726.022829,2512.02771 722.911985,2513.61205 722.002347,2513.61205 C721.761383,2513.61205 721.585479,2513.54337 721.444515,2513.48795 C721.236082,2513.40602 720.746925,2513.21446 720.101142,2513.21446 C719.502347,2513.21446 719.081865,2513.39036 718.879455,2513.4759 C718.742106,2513.53373 718.554154,2513.61205 718.297527,2513.61205 C716.301142,2513.61205 713.521624,2511.82169 711.032467,2509.81566 C710.911985,2511.11205 710.509576,2512.23133 710.025238,2513.01084 C709.933672,2513.16024 709.831262,2513.28313 709.731262,2513.41446 C710.061383,2513.79518 710.719214,2514.32289 711.891503,2514.86747 L711.891503,2514.86747 Z M729.304756,2519.8759 C729.326443,2518.71807 729.002347,2517.72651 728.464997,2517.25783 C727.561383,2517.42048 724.949335,2518.61687 722.34813,2519.96506 C724.914395,2521.25301 727.527648,2522.38434 728.440901,2522.46988 C728.866202,2522.11205 729.28066,2521.11084 729.304756,2519.8759 L729.304756,2519.8759 Z M728.543311,2523.68072 L728.551744,2522.4759 L728.543311,2522.4759 L728.543311,2523.68072 L728.543311,2523.68072 Z M747.016804,2520.90361 C743.389094,2517.7759 738.405961,2515.70361 732.214395,2514.73012 C731.820419,2515.22651 731.269817,2515.69398 730.632467,2516.13373 C731.337286,2517.09518 731.743311,2518.40482 731.714395,2519.92169 C731.68066,2521.64096 731.077045,2523.79036 729.479455,2524.66747 C729.211985,2524.81446 728.905961,2524.88554 728.543311,2524.88554 L728.543311,2524.88554 C726.752949,2524.88434 722.38307,2522.71928 720.124033,2521.53373 C717.866202,2522.71928 713.496323,2524.88554 711.705961,2524.88554 C711.342106,2524.88554 711.036082,2524.81446 710.768612,2524.66747 C709.172226,2523.79036 708.568612,2521.64096 708.534877,2519.92169 C708.507166,2518.49398 708.875841,2517.25904 709.503551,2516.31325 C708.720419,2515.81687 708.118009,2515.27711 707.699937,2514.71687 C701.573431,2515.79639 696.624033,2517.88675 692.997527,2520.94217 C692.534877,2521.33253 692.346925,2521.91325 692.495118,2522.4988 C692.643311,2523.08193 693.08307,2523.50361 693.673431,2523.62651 C699.092708,2524.7506 708.043311,2526.09036 719.908371,2526.09036 C731.525238,2526.09036 740.679455,2524.7253 746.311985,2523.57952 C746.904756,2523.45904 747.349335,2523.03976 747.502347,2522.45663 C747.652949,2521.8759 747.472226,2521.29639 747.016804,2520.90361 L747.016804,2520.90361 Z M722.318009,2504.40361 L717.498732,2504.40361 C716.833672,2504.40361 716.293913,2503.86386 716.293913,2503.1988 C716.293913,2502.53373 716.833672,2501.99398 717.498732,2501.99398 L722.318009,2501.99398 C722.98307,2501.99398 723.522829,2502.53373 723.522829,2503.1988 C723.522829,2503.86386 722.98307,2504.40361 722.318009,2504.40361 L722.318009,2504.40361 Z" id="Shape" sketch:type="MSShapeGroup"></path>
        </g>
    </g>
</svg>