<?xml version="1.0" encoding="UTF-8" standalone="no"?>
<svg width="15px" height="25px" viewBox="0 0 15 25" version="1.1" xmlns="http://www.w3.org/2000/svg" xmlns:xlink="http://www.w3.org/1999/xlink" xmlns:sketch="http://www.bohemiancoding.com/sketch/ns">
    <!-- Generator: Sketch 3.3.3 (12072) - http://www.bohemiancoding.com/sketch -->
    <title>Shape Copy 5</title>
    <desc>Created with Sketch.</desc>
    <defs></defs>
    <g id="Page-1" stroke="none" stroke-width="1" fill="none" fill-rule="evenodd" sketch:type="MSPage">
        <g id="makers-home-hover" sketch:type="MSArtboardGroup" transform="translate(-1384.000000, -2366.000000)" fill="#FFFFFF">
            <g id="Group-Copy-3" sketch:type="MSLayerGroup" transform="translate(0.000000, 2329.000000)">
                <path d="M1398.7446,44.305296 C1398.50367,44.546729 1398.12284,44.5389408 1397.86636,44.305296 L1392.08398,39.1339564 L1392.08398,61.2990654 C1392.08398,61.6417445 1391.80418,61.9221184 1391.46222,61.9221184 C1391.12025,61.9221184 1390.84045,61.6417445 1390.84045,61.2990654 L1390.84045,39.1339564 L1385.05807,44.2975078 C1384.79382,44.5233645 1384.42854,44.546729 1384.1876,44.305296 C1383.94667,44.0638629 1383.93113,43.6433022 1384.17983,43.4174455 C1384.17983,43.4174455 1390.94149,37.2492212 1391.01921,37.1869159 C1391.09693,37.1246106 1391.23683,37 1391.46222,37 C1391.6876,37 1391.84304,37.1246106 1391.90522,37.1869159 C1391.9674,37.2492212 1398.7446,43.4174455 1398.7446,43.4174455 C1398.86118,43.5342679 1398.92336,43.6978193 1398.92336,43.8613707 C1398.92336,44.0249221 1398.86118,44.1806854 1398.7446,44.305296 L1398.7446,44.305296 Z" id="Shape-Copy-5" sketch:type="MSShapeGroup"></path>
            </g>
        </g>
    </g>
</svg>