<?xml version="1.0" encoding="UTF-8" standalone="no"?>
<svg width="28px" height="17px" viewBox="0 0 28 17" version="1.1" xmlns="http://www.w3.org/2000/svg" xmlns:xlink="http://www.w3.org/1999/xlink" xmlns:sketch="http://www.bohemiancoding.com/sketch/ns">
    <!-- Generator: Sketch 3.3.3 (12072) - http://www.bohemiancoding.com/sketch -->
    <title>Shape Copy</title>
    <desc>Created with Sketch.</desc>
    <defs></defs>
    <g id="Page-1" stroke="none" stroke-width="1" fill="none" fill-rule="evenodd" sketch:type="MSPage">
        <g id="careers" sketch:type="MSArtboardGroup" transform="translate(-1243.000000, -1614.000000)" fill="#FFFFFF">
            <g id="Shape-Copy-+-Listen-to-our-team,-" sketch:type="MSLayerGroup" transform="translate(1181.000000, 1518.000000)">
                <path d="M81.6157812,112.451747 C81.3469531,112.182919 81.355625,111.757997 81.6157812,111.471825 L87.3739063,105.01995 L62.69375,105.01995 C62.3121875,105.01995 62,104.707763 62,104.3262 C62,103.944638 62.3121875,103.63245 62.69375,103.63245 L87.3739063,103.63245 L81.6244531,97.1805751 C81.3729688,96.8857313 81.3469531,96.4781532 81.6157812,96.2093251 C81.8846094,95.9404969 82.3528906,95.9231532 82.604375,96.2006532 C82.604375,96.2006532 89.4725,103.745184 89.541875,103.831903 C89.61125,103.918622 89.75,104.074716 89.75,104.3262 C89.75,104.577684 89.61125,104.751122 89.541875,104.820497 C89.4725,104.889872 82.604375,112.451747 82.604375,112.451747 C82.4742969,112.581825 82.2921875,112.6512 82.1100781,112.6512 C81.9279688,112.6512 81.7545312,112.581825 81.6157812,112.451747 L81.6157812,112.451747 Z" id="Shape-Copy" sketch:type="MSShapeGroup"></path>
            </g>
        </g>
    </g>
</svg>