<?xml version="1.0" encoding="UTF-8" standalone="no"?>
<svg width="31px" height="31px" viewBox="0 0 31 31" version="1.1" xmlns="http://www.w3.org/2000/svg" xmlns:xlink="http://www.w3.org/1999/xlink" xmlns:sketch="http://www.bohemiancoding.com/sketch/ns">
    <!-- Generator: Sketch 3.3.3 (12072) - http://www.bohemiancoding.com/sketch -->
    <title>Shape Copy 3</title>
    <desc>Created with Sketch.</desc>
    <defs></defs>
    <g id="Page-1" stroke="none" stroke-width="1" fill="none" fill-rule="evenodd" sketch:type="MSPage">
        <g id="blog" sketch:type="MSArtboardGroup" transform="translate(-457.000000, -874.000000)" fill="#9E9E9E" opacity="0.3">
            <path d="M479.508555,892.727633 C480.696445,890.858685 481.393341,888.64129 481.393341,886.257589 C481.393341,879.597482 476.000318,874.19654 469.34813,874.19654 C462.688023,874.19654 457.295,879.597482 457.295,886.257589 C457.295,892.917696 462.688023,898.318639 469.340211,898.318639 C471.755589,898.318639 474.004661,897.605904 475.889448,896.386337 L476.435878,896.006212 L485.036206,904.60654 L487.705,901.89023 L479.112591,893.289902 L479.508555,892.727633 L479.508555,892.727633 Z M476.095349,879.51829 C477.893023,881.315964 478.882932,883.707584 478.882932,886.24967 C478.882932,888.791756 477.893023,891.183376 476.095349,892.98105 C474.297674,894.778725 471.906055,895.768633 469.363969,895.768633 C466.821883,895.768633 464.430263,894.778725 462.632589,892.98105 C460.834914,891.183376 459.845005,888.791756 459.845005,886.24967 C459.845005,883.707584 460.834914,881.315964 462.632589,879.51829 C464.430263,877.720615 466.821883,876.730706 469.363969,876.730706 C471.906055,876.730706 474.297674,877.720615 476.095349,879.51829 L476.095349,879.51829 Z" id="Shape-Copy-3" sketch:type="MSShapeGroup"></path>
        </g>
    </g>
</svg>