<?xml version="1.0" encoding="UTF-8" standalone="no"?>
<svg width="25px" height="15px" viewBox="0 0 25 15" version="1.1" xmlns="http://www.w3.org/2000/svg" xmlns:xlink="http://www.w3.org/1999/xlink" xmlns:sketch="http://www.bohemiancoding.com/sketch/ns">
    <!-- Generator: Sketch 3.3.3 (12072) - http://www.bohemiancoding.com/sketch -->
    <title>Shape Copy 5</title>
    <desc>Created with Sketch.</desc>
    <defs></defs>
    <g id="Page-1" stroke="none" stroke-width="1" fill="none" fill-rule="evenodd" sketch:type="MSPage">
        <g id="makers-home" sketch:type="MSArtboardGroup" transform="translate(-362.000000, -2268.000000)" fill="#E9493F">
            <path d="M381.744599,2270.3053 C381.503666,2270.54673 381.122837,2270.53894 380.866361,2270.3053 L375.083977,2265.13396 L375.083977,2287.29907 C375.083977,2287.64174 374.804184,2287.92212 374.462215,2287.92212 C374.120247,2287.92212 373.840454,2287.64174 373.840454,2287.29907 L373.840454,2265.13396 L368.05807,2270.29751 C367.793822,2270.52336 367.428537,2270.54673 367.187604,2270.3053 C366.946671,2270.06386 366.931127,2269.6433 367.179832,2269.41745 C367.179832,2269.41745 373.94149,2263.24922 374.01921,2263.18692 C374.09693,2263.12461 374.236827,2263 374.462215,2263 C374.687604,2263 374.843044,2263.12461 374.905221,2263.18692 C374.967397,2263.24922 381.744599,2269.41745 381.744599,2269.41745 C381.861179,2269.53427 381.923355,2269.69782 381.923355,2269.86137 C381.923355,2270.02492 381.861179,2270.18069 381.744599,2270.3053 L381.744599,2270.3053 Z" id="Shape-Copy-5" sketch:type="MSShapeGroup" transform="translate(374.461678, 2275.461059) rotate(-270.000000) translate(-374.461678, -2275.461059) "></path>
        </g>
    </g>
</svg>