<?xml version="1.0" encoding="UTF-8" standalone="no"?>
<svg width="24px" height="19px" viewBox="0 0 24 19" version="1.1" xmlns="http://www.w3.org/2000/svg" xmlns:xlink="http://www.w3.org/1999/xlink" xmlns:sketch="http://www.bohemiancoding.com/sketch/ns">
    <!-- Generator: Sketch 3.3.3 (12072) - http://www.bohemiancoding.com/sketch -->
    <title>Shape</title>
    <desc>Created with Sketch.</desc>
    <defs></defs>
    <g id="Page-1" stroke="none" stroke-width="1" fill="none" fill-rule="evenodd" sketch:type="MSPage">
        <g id="makers-home" sketch:type="MSArtboardGroup" transform="translate(-675.000000, -2451.000000)" fill="#FFFFFF">
            <g id="Group-Copy-3" sketch:type="MSLayerGroup" transform="translate(0.000000, 2330.000000)">
                <g id="Group-+-Imported-Layers-Copy" transform="translate(572.000000, 115.042969)" sketch:type="MSShapeGroup">
                    <g id="Group" transform="translate(0.000000, 0.350000)">
                        <g id="Shape-+-Shape-+-Group">
                            <g id="Group" transform="translate(0.500000, 0.000000)">
                                <path d="M126.174646,8.05814501 C125.31279,8.42589738 124.391495,8.67424963 123.420668,8.78887374 C124.411308,8.21575317 125.1741,7.30831227 125.53073,6.22893519 C124.604482,6.75907172 123.57917,7.14592811 122.484514,7.35129631 C121.607798,6.44863141 120.359592,5.88506285 118.982603,5.88506285 C116.332642,5.88506285 114.187907,7.95784891 114.187907,10.5130115 C114.187907,10.8759878 114.227533,11.2294122 114.311737,11.5685085 C110.324413,11.3774683 106.787829,9.53393049 104.425154,6.73041569 C104.014038,7.41338437 103.776285,8.21097717 103.776285,9.05633001 C103.776285,10.6610676 104.628235,12.079541 105.916066,12.9105659 C105.123555,12.8914618 104.380575,12.6813176 103.736659,12.3326693 L103.736659,12.3899813 C103.736659,14.6347036 105.391027,16.5021214 107.585294,16.9271859 C107.184085,17.032258 106.75811,17.08957 106.322229,17.08957 C106.01513,17.08957 105.712985,17.060914 105.420747,17.0036019 C106.02999,18.8423638 107.803235,20.1796451 109.903391,20.2178531 C108.263882,21.4596144 106.193445,22.1998951 103.944694,22.1998951 C103.558344,22.1998951 103.176948,22.1760151 102.800505,22.133031 C104.91552,23.4607604 107.436698,24.2249211 110.141144,24.2249211 C118.972696,24.2249211 123.797111,17.1707621 123.797111,11.0527 C123.797111,10.8521078 123.792158,10.6515156 123.782252,10.4556994 C124.718406,9.80138675 125.53073,8.98946594 126.174646,8.05814501 L126.174646,8.05814501 Z" id="Shape"></path>
                            </g>
                        </g>
                    </g>
                </g>
            </g>
        </g>
    </g>
</svg>