<?xml version="1.0" encoding="UTF-8" standalone="no"?>
<svg width="75px" height="65px" viewBox="0 0 75 65" version="1.1" xmlns="http://www.w3.org/2000/svg" xmlns:xlink="http://www.w3.org/1999/xlink" xmlns:sketch="http://www.bohemiancoding.com/sketch/ns">
    <!-- Generator: Sketch 3.3.3 (12072) - http://www.bohemiancoding.com/sketch -->
    <title>1441055437_custom-coding</title>
    <desc>Created with Sketch.</desc>
    <defs></defs>
    <g id="Page-1" stroke="none" stroke-width="1" fill="none" fill-rule="evenodd" sketch:type="MSPage">
        <g id="AboutUs_Process" sketch:type="MSArtboardGroup" transform="translate(-83.000000, -3696.000000)" stroke="#FFFFFF" fill="#FFFFFF">
            <g id="1441055437_custom-coding" sketch:type="MSLayerGroup" transform="translate(83.000000, 3696.500000)">
                <path d="M70.9583333,0 L4.04166667,0 C2.36875,0 1,1.37142857 1,3.04761905 L1,48.7619048 C1,50.4380952 2.36875,51.8095238 4.04166667,51.8095238 L28.3143187,51.8095238 L28.3237479,51.9597714 C28.3853417,52.9447619 28.3099083,54.0909714 28.1296896,55.265219 L26.8804771,59.6589714 C26.4982917,60.5106286 26.0482771,61.2821333 25.5249583,61.8972952 L25.0311437,62.4761905 L22.2916667,62.4761905 L22.2916667,64 L52.7083333,64 L52.7083333,62.4761905 L50.7095021,62.4761905 L50.2176646,61.8972952 C49.6937375,61.281219 49.2432667,60.5083429 48.860625,59.6553143 L47.612325,55.2647619 C47.4319542,54.0905143 47.3565208,52.9443048 47.4181146,51.9597714 L47.4273917,51.8095238 L70.9583333,51.8095238 C72.63125,51.8095238 74,50.4380952 74,48.7619048 L74,3.04761905 C74,1.37142857 72.63125,0 70.9583333,0 L70.9583333,0 Z M48.7634437,62.4761905 L26.9776583,62.4761905 C29.0876625,59.6766476 30.0378792,55.0150095 29.8415396,51.8645333 L29.8381937,51.8095238 L45.9036687,51.8095238 L45.9001708,51.8645333 C45.7032229,55.0136381 46.6540479,59.6764952 48.7634437,62.4761905 L48.7634437,62.4761905 Z M72.4791667,48.7619048 C72.4791667,49.6021333 71.7969208,50.2857143 70.9583333,50.2857143 L4.04166667,50.2857143 C3.20307917,50.2857143 2.52083333,49.6021333 2.52083333,48.7619048 L2.52083333,39.6190476 L72.4791667,39.6190476 L72.4791667,48.7619048 L72.4791667,48.7619048 Z M72.4791667,38.0952381 L2.52083333,38.0952381 L2.52083333,3.04761905 C2.52083333,2.20739048 3.20307917,1.52380952 4.04166667,1.52380952 L70.9583333,1.52380952 C71.7969208,1.52380952 72.4791667,2.20739048 72.4791667,3.04761905 L72.4791667,38.0952381 L72.4791667,38.0952381 Z M37.5,47.2380952 C38.7598583,47.2380952 39.78125,46.2147048 39.78125,44.952381 C39.78125,43.6900571 38.7598583,42.6666667 37.5,42.6666667 C36.2401417,42.6666667 35.21875,43.6900571 35.21875,44.952381 C35.21875,46.2147048 36.2401417,47.2380952 37.5,47.2380952 L37.5,47.2380952 Z M37.5,44.1904762 C37.9192937,44.1904762 38.2604167,44.5322667 38.2604167,44.952381 C38.2604167,45.3724952 37.9192937,45.7142857 37.5,45.7142857 C37.0807062,45.7142857 36.7395833,45.3724952 36.7395833,44.952381 C36.7395833,44.5322667 37.0807062,44.1904762 37.5,44.1904762 L37.5,44.1904762 Z M13.1666667,19.7017905 L28.375,11.3208381 L28.375,13.0602667 L14.7446833,20.5714286 L28.375,28.0825905 L28.375,29.822019 L13.1666667,21.4410667 L13.1666667,19.7017905 L13.1666667,19.7017905 Z M41.2707542,6.0952381 L42.8749292,6.0952381 L33.7389792,33.5238095 L32.1361729,33.5238095 L41.2707542,6.0952381 L41.2707542,6.0952381 Z M46.625,11.3208381 L61.8333333,19.7017905 L61.8333333,21.4410667 L46.625,29.822019 L46.625,28.0825905 L60.2553167,20.5714286 L46.625,13.0602667 L46.625,11.3208381 L46.625,11.3208381 Z" id="Shape" sketch:type="MSShapeGroup"></path>
            </g>
        </g>
    </g>
</svg>