<?xml version="1.0" encoding="UTF-8" standalone="no"?>
<svg width="69px" height="51px" viewBox="0 0 69 51" version="1.1" xmlns="http://www.w3.org/2000/svg" xmlns:xlink="http://www.w3.org/1999/xlink" xmlns:sketch="http://www.bohemiancoding.com/sketch/ns">
    <!-- Generator: Sketch 3.3.3 (12072) - http://www.bohemiancoding.com/sketch -->
    <title>1441055569_startup-project</title>
    <desc>Created with Sketch.</desc>
    <defs></defs>
    <g id="Page-1" stroke="none" stroke-width="1" fill="none" fill-rule="evenodd" sketch:type="MSPage">
        <g id="makers-home-hover" sketch:type="MSArtboardGroup" transform="translate(-1225.000000, -2101.000000)" fill="#E9493F">
            <g id="1441055569_startup-project" sketch:type="MSLayerGroup" transform="translate(1225.561717, 2101.087614)">
                <path d="M30.551055,40.642037 C30.551055,42.5124174 32.0673417,47.4157098 33.9378914,47.4157098 C35.8084412,47.4157098 37.3247279,42.5124174 37.3247279,40.642037 C37.3247279,38.7714872 35.8084412,37.2552006 33.9378914,37.2552006 C32.0673417,37.2552006 30.551055,38.7714872 30.551055,40.642037 L30.551055,40.642037 Z M33.9378914,38.9486188 C34.8716422,38.9486188 35.6313096,39.7082862 35.6313096,40.642037 C35.6313096,42.0406311 34.6640292,44.7673731 33.9378914,45.5791978 C33.2117537,44.7673731 32.2444732,42.0404617 32.2444732,40.642037 C32.2444732,39.7082862 33.0041406,38.9486188 33.9378914,38.9486188 L33.9378914,38.9486188 Z M18.6971276,31.5939342 L18.6971276,32.1749459 C18.6971276,34.0453264 20.2134142,35.5617824 22.083964,35.5617824 L27.1642186,33.8683642 C28.7631441,36.0003777 31.2729592,37.2552006 33.9378914,37.2552006 C36.6028237,37.2552006 39.1126388,36.0003777 40.7115643,33.8683642 L45.7918189,35.5617824 C47.6623686,35.5617824 49.1786553,34.0453264 49.1786553,32.1749459 L49.1786553,31.5939342 C49.1786553,29.7973868 48.4650489,28.0743338 47.1946465,26.8041008 L40.7115643,20.3210185 L40.7115643,19.8673518 C40.7115643,11.0905345 37.9391,3.53585722 33.9378914,0 C29.9366829,3.53585722 27.1642186,11.0905345 27.1642186,19.8673518 L27.1642186,20.3210185 L22.3745546,25.1106825 C21.1041522,26.3809155 18.6971276,29.7972174 18.6971276,31.5939342 L18.6971276,31.5939342 Z M28.3616346,21.5184345 L28.8576368,21.0224323 L28.8576368,20.3210185 L28.8576368,19.8673518 C28.8576368,12.7201109 30.8159056,6.11036092 33.9378914,2.42158804 C37.0598772,6.11036092 39.0181461,12.7201109 39.0181461,19.8673518 L39.0181461,20.3210185 L39.0181461,21.0224323 L39.5141483,21.5184345 L45.9972305,28.0015168 C46.9567213,28.9610075 47.4852371,30.2366595 47.4852371,31.5939342 L47.4852371,32.1749459 C47.4852371,33.0311382 46.8464798,33.7410191 46.0204304,33.852954 L41.2470231,32.2618183 L40.0890637,31.8757189 L39.3568297,32.8523132 C38.0845646,34.5489489 36.0587284,35.5617824 33.9378914,35.5617824 C31.8170545,35.5617824 29.7912183,34.5489489 28.5189532,32.8523132 L27.7865498,31.8757189 L26.6285904,32.2618183 L21.8551832,33.852954 C21.0293031,33.7410191 20.3905458,33.0311382 20.3905458,32.1749459 L20.3905458,31.5939342 C20.3905458,30.5775445 22.257878,27.6221911 23.5719706,26.3080986 L28.3616346,21.5184345 L28.3616346,21.5184345 Z M33.9378914,12.7006366 C35.3385176,12.7006366 36.4780188,11.5611354 36.4780188,10.1605092 C36.4780188,8.75988305 35.3385176,7.62038193 33.9378914,7.62038193 C32.5372652,7.62038193 31.3977641,8.75988305 31.3977641,10.1605092 C31.3977641,11.5611354 32.5372652,12.7006366 33.9378914,12.7006366 L33.9378914,12.7006366 Z M33.9378914,9.31380014 C34.4054442,9.31380014 34.7846005,9.69278714 34.7846005,10.1605092 C34.7846005,10.628062 34.4054442,11.0072183 33.9378914,11.0072183 C33.4703387,11.0072183 33.0911823,10.628062 33.0911823,10.1605092 C33.0911823,9.69278714 33.4703387,9.31380014 33.9378914,9.31380014 L33.9378914,9.31380014 Z M12.3185292,39.3645223 C10.5887025,36.2289891 7.29077055,34.0800414 3.4563637,34.0800414 C2.26114913,34.0800414 1.12909906,34.3150879 0.069527289,34.7003405 L0.069527289,50.8025462 L36.4219666,50.8025462 C35.2738291,49.8826815 33.8315448,49.3208053 32.2444732,49.3208053 C30.9750869,49.3208053 29.8008708,49.6918332 28.7854972,50.2994317 C28.4838994,47.4631255 26.4560311,45.1621089 23.754013,44.4728877 C23.7567225,44.3939744 23.7773822,44.3201413 23.7773822,44.2405507 C23.7773822,40.4994512 20.7446395,37.4668778 17.0037094,37.4668778 C15.1819301,37.4668778 13.5357582,38.1945396 12.3185292,39.3645223 Z M26.7566128,49.109128 L1.7629455,49.109128 L1.7629455,35.9648159 C2.33362743,35.8376402 2.89990648,35.7734596 3.4563637,35.7734596 C6.50773397,35.7734596 9.3354037,37.462983 10.8357722,40.1824433 L11.9014403,42.1141254 L13.4918987,40.5853075 C14.4481719,39.6664588 15.6953745,39.1602961 17.0037094,39.1602961 C19.7802379,39.1602961 22.04383,41.3993336 22.083456,44.1667176 C22.0724487,44.2486791 22.0644897,44.3311485 22.0616109,44.4154808 L22.0155499,45.776989 L23.3355694,46.1138099 C24.9023199,46.5134566 26.1613763,47.6492322 26.7566128,49.109128 L26.7566128,49.109128 Z M44.0984007,45.9339689 C41.024508,45.9339689 38.4681238,47.9951975 37.6449532,50.8025462 L67.8062556,50.8025462 L67.8062556,30.860176 C67.2548786,30.7616191 66.6936798,30.693205 66.1128374,30.693205 C62.1759787,30.693205 58.8006576,32.9562891 57.1136743,36.2305132 C56.2022767,35.9622758 55.25718,35.7734596 54.2589099,35.7734596 C48.64743,35.7734596 44.0984007,40.322489 44.0984007,45.9339689 L44.0984007,45.9339689 Z M54.2589099,37.4668778 C54.9808141,37.4668778 55.7360786,37.5901587 56.635453,37.8550093 L57.977995,38.2502531 L58.6189538,37.0060987 C60.0871474,34.1567533 62.9586766,32.3866232 66.1128374,32.3866232 L66.1128374,49.109128 L40.539513,49.109128 C41.4578537,48.1789334 42.7202969,47.6273871 44.0984007,47.6273871 L45.7918189,47.6273871 L45.7918189,45.9339689 C45.7918189,41.2652149 49.5901559,37.4668778 54.2589099,37.4668778 L54.2589099,37.4668778 Z" id="Shape" sketch:type="MSShapeGroup"></path>
            </g>
        </g>
    </g>
</svg>