<?xml version="1.0" encoding="UTF-8" standalone="no"?>
<svg width="61px" height="62px" viewBox="0 0 61 62" version="1.1" xmlns="http://www.w3.org/2000/svg" xmlns:xlink="http://www.w3.org/1999/xlink" xmlns:sketch="http://www.bohemiancoding.com/sketch/ns">
    <!-- Generator: Sketch 3.3.3 (12072) - http://www.bohemiancoding.com/sketch -->
    <title>Shape Copy 3</title>
    <desc>Created with Sketch.</desc>
    <defs></defs>
    <g id="Page-1" stroke="none" stroke-width="1" fill="none" fill-rule="evenodd" sketch:type="MSPage">
        <g id="makers-home-hover" sketch:type="MSArtboardGroup" transform="translate(-150.000000, -2100.000000)" stroke="#E9493F" stroke-width="0.5" fill="#E9493F">
            <path d="M155.313283,2111.08761 C158.074783,2111.08761 160.313283,2108.84899 160.313283,2106.08761 C160.313283,2103.32611 158.074783,2101.08761 155.313283,2101.08761 C152.551783,2101.08761 150.313283,2103.32611 150.313283,2106.08761 C150.313283,2108.84899 152.551783,2111.08761 155.313283,2111.08761 L155.313283,2111.08761 Z M155.313283,2102.33761 C157.381033,2102.33761 159.063283,2104.01986 159.063283,2106.08761 C159.063283,2108.15536 157.381033,2109.83761 155.313283,2109.83761 C153.245533,2109.83761 151.563283,2108.15536 151.563283,2106.08761 C151.563283,2104.01986 153.245533,2102.33761 155.313283,2102.33761 L155.313283,2102.33761 Z M175.313283,2111.08761 C178.074783,2111.08761 180.313283,2108.84899 180.313283,2106.08761 C180.313283,2103.32611 178.074783,2101.08761 175.313283,2101.08761 C172.551783,2101.08761 170.313283,2103.32611 170.313283,2106.08761 C170.313283,2108.84899 172.551783,2111.08761 175.313283,2111.08761 L175.313283,2111.08761 Z M175.313283,2102.33761 C177.381033,2102.33761 179.063283,2104.01986 179.063283,2106.08761 C179.063283,2108.15536 177.381033,2109.83761 175.313283,2109.83761 C173.245533,2109.83761 171.563283,2108.15536 171.563283,2106.08761 C171.563283,2104.01986 173.245533,2102.33761 175.313283,2102.33761 L175.313283,2102.33761 Z M185.313283,2114.83761 C187.384408,2114.83761 189.063283,2113.15874 189.063283,2111.08761 C189.063283,2109.01649 187.384408,2107.33761 185.313283,2107.33761 C183.242158,2107.33761 181.563283,2109.01649 181.563283,2111.08761 C181.563283,2113.15874 183.242158,2114.83761 185.313283,2114.83761 L185.313283,2114.83761 Z M185.313283,2108.58761 C186.691783,2108.58761 187.813283,2109.70911 187.813283,2111.08761 C187.813283,2112.46611 186.691783,2113.58761 185.313283,2113.58761 C183.934783,2113.58761 182.813283,2112.46611 182.813283,2111.08761 C182.813283,2109.70911 183.934783,2108.58761 185.313283,2108.58761 L185.313283,2108.58761 Z M177.813283,2141.08761 C172.290408,2141.08761 167.813283,2145.56474 167.813283,2151.08761 C167.813283,2156.61049 172.290408,2161.08761 177.813283,2161.08761 C183.336158,2161.08761 187.813283,2156.61049 187.813283,2151.08761 C187.813283,2145.56474 183.336158,2141.08761 177.813283,2141.08761 L177.813283,2141.08761 Z M177.813283,2159.83761 C172.988533,2159.83761 169.063283,2155.91236 169.063283,2151.08761 C169.063283,2146.26286 172.988533,2142.33761 177.813283,2142.33761 C182.638033,2142.33761 186.563283,2146.26286 186.563283,2151.08761 C186.563283,2155.91236 182.638033,2159.83761 177.813283,2159.83761 L177.813283,2159.83761 Z M175.313283,2148.58761 C175.313283,2149.62149 176.434533,2150.46261 177.813283,2150.46261 C179.881158,2150.46261 181.563283,2151.86461 181.563283,2153.58761 C181.563283,2155.44149 180.208158,2156.97474 178.438283,2157.27449 L178.438283,2158.58761 L177.188283,2158.58761 L177.188283,2157.27449 C175.418408,2156.97474 174.063283,2155.44149 174.063283,2153.58761 L175.313283,2153.58761 C175.313283,2154.96636 176.434533,2156.08761 177.813283,2156.08761 C179.192033,2156.08761 180.313283,2154.96636 180.313283,2153.58761 C180.313283,2152.55374 179.192033,2151.71261 177.813283,2151.71261 C175.745408,2151.71261 174.063283,2150.31061 174.063283,2148.58761 C174.063283,2146.73374 175.418408,2145.20049 177.188283,2144.90074 L177.188283,2143.58761 L178.438283,2143.58761 L178.438283,2144.90074 C180.208158,2145.20049 181.563283,2146.73374 181.563283,2148.58761 L180.313283,2148.58761 C180.313283,2147.20886 179.192033,2146.08761 177.813283,2146.08761 C176.434533,2146.08761 175.313283,2147.20886 175.313283,2148.58761 L175.313283,2148.58761 Z M159.063283,2114.83761 C159.063283,2112.07611 161.301783,2109.83761 164.063283,2109.83761 C166.824783,2109.83761 169.063283,2112.07611 169.063283,2114.83761 L167.813283,2114.83761 C167.813283,2112.76986 166.131033,2111.08761 164.063283,2111.08761 C161.995533,2111.08761 160.313283,2112.76986 160.313283,2114.83761 L159.063283,2114.83761 L159.063283,2114.83761 Z M204.688283,2123.58761 L200.313283,2123.58761 L202.813283,2121.08761 C204.188283,2121.08761 205.313283,2119.96261 205.313283,2118.58761 C205.313283,2117.21261 204.188283,2116.08761 202.813283,2116.08761 L177.813283,2116.08761 L152.813283,2116.08761 C151.438283,2116.08761 150.313283,2117.21261 150.313283,2118.58761 C150.313283,2119.96261 151.438283,2121.08761 152.813283,2121.08761 L168.172283,2136.44661 C169.568283,2137.84261 170.519908,2139.62061 170.907033,2141.55649 L171.023408,2142.13874 C171.382283,2141.86574 171.756658,2141.61349 172.147408,2141.38449 L172.132783,2141.31124 C171.695658,2139.12624 170.631908,2137.13836 169.056158,2135.56261 L154.581033,2121.08761 L177.813283,2121.08761 L201.045533,2121.08761 L186.570408,2135.56274 C184.994658,2137.13849 183.930908,2139.12624 183.493783,2141.31136 L183.479158,2141.38449 C183.869908,2141.61349 184.244283,2141.86574 184.603158,2142.13874 L184.719533,2141.55649 C185.106783,2139.62061 186.058283,2137.84261 187.454283,2136.44661 L187.813283,2136.08761 L204.688283,2136.08761 C207.790033,2136.08761 210.313283,2133.56436 210.313283,2130.46261 L210.313283,2129.21261 C210.313283,2126.11086 207.790033,2123.58761 204.688283,2123.58761 L204.688283,2123.58761 Z M177.813283,2119.83761 L152.813283,2119.83761 C152.124033,2119.83761 151.563283,2119.27686 151.563283,2118.58761 C151.563283,2117.89836 152.124033,2117.33761 152.813283,2117.33761 L177.813283,2117.33761 L202.813283,2117.33761 C203.502533,2117.33761 204.063283,2117.89836 204.063283,2118.58761 C204.063283,2119.27686 203.502533,2119.83761 202.813283,2119.83761 L177.813283,2119.83761 L177.813283,2119.83761 Z M209.063283,2130.46261 C209.063283,2132.87474 207.100408,2134.83761 204.688283,2134.83761 L189.063283,2134.83761 L199.063283,2124.83761 L204.688283,2124.83761 C207.100408,2124.83761 209.063283,2126.80049 209.063283,2129.21261 L209.063283,2130.46261 L209.063283,2130.46261 Z" id="Shape-Copy-3" sketch:type="MSShapeGroup"></path>
        </g>
    </g>
</svg>