<?xml version="1.0" encoding="UTF-8" standalone="no"?>
<svg width="89px" height="66px" viewBox="0 0 89 66" version="1.1" xmlns="http://www.w3.org/2000/svg" xmlns:xlink="http://www.w3.org/1999/xlink" xmlns:sketch="http://www.bohemiancoding.com/sketch/ns">
    <!-- Generator: Sketch 3.3.3 (12072) - http://www.bohemiancoding.com/sketch -->
    <title>1441055569_startup-project</title>
    <desc>Created with Sketch.</desc>
    <defs></defs>
    <g id="Page-1" stroke="none" stroke-width="1" fill="none" fill-rule="evenodd" sketch:type="MSPage">
        <g id="AboutUs_Process" sketch:type="MSArtboardGroup" transform="translate(-799.000000, -4999.000000)" stroke="#FFFFFF" stroke-width="0.2" fill="#FFFFFF">
            <g id="1441055569_startup-project" sketch:type="MSLayerGroup" transform="translate(800.000000, 4999.000000)">
                <path d="M39.5276175,52.6498495 C39.5276175,55.0710417 41.4904383,61.418314 43.9118498,61.418314 C46.3332612,61.418314 48.296082,55.0710417 48.296082,52.6498495 C48.296082,50.228438 46.3332612,48.2656172 43.9118498,48.2656172 C41.4904383,48.2656172 39.5276175,50.228438 39.5276175,52.6498495 L39.5276175,52.6498495 Z M43.9118498,50.4577334 C45.1205826,50.4577334 46.1039659,51.4411167 46.1039659,52.6498495 C46.1039659,54.4603182 44.8518292,57.9900636 43.9118498,59.040964 C42.9718704,57.9900636 41.7197336,54.460099 41.7197336,52.6498495 C41.7197336,51.4411167 42.7031169,50.4577334 43.9118498,50.4577334 L43.9118498,50.4577334 Z M24.1828047,40.9371538 L24.1828047,41.6892689 C24.1828047,44.1104611 26.1456254,46.0735011 28.5670369,46.0735011 L35.1433853,43.881385 C37.2131813,46.6412592 40.4621166,48.2656172 43.9118498,48.2656172 C47.3615829,48.2656172 50.6105182,46.6412592 52.6803143,43.881385 L59.2566626,46.0735011 C61.6780741,46.0735011 63.6408949,44.1104611 63.6408949,41.6892689 L63.6408949,40.9371538 C63.6408949,38.6115378 62.7171372,36.3810597 61.0726116,34.7367534 L52.6803143,26.344456 L52.6803143,25.7571881 C52.6803143,14.3956694 49.0913818,4.61620097 43.9118498,0.0390625 C38.7323178,4.61620097 35.1433853,14.3956694 35.1433853,25.7571881 L35.1433853,26.344456 L28.943204,32.5446372 C27.2986785,34.1889435 24.1828047,38.6113186 24.1828047,40.9371538 L24.1828047,40.9371538 Z M36.6934306,27.8945013 L37.3355014,27.2524305 L37.3355014,26.344456 L37.3355014,25.7571881 C37.3355014,16.5051428 39.8704645,7.94887511 43.9118498,3.17378856 C47.9532351,7.94887511 50.4881981,16.5051428 50.4881981,25.7571881 L50.4881981,26.344456 L50.4881981,27.2524305 L51.130269,27.8945013 L59.5225663,36.2867987 C60.7646193,37.5288517 61.4487788,39.1801727 61.4487788,40.9371538 L61.4487788,41.6892689 C61.4487788,42.7976028 60.6219126,43.7165379 59.5525983,43.8614367 L53.3734614,41.8017244 L51.8744924,41.3019219 L50.9266214,42.5661153 C49.2796845,44.7623965 46.657256,46.0735011 43.9118498,46.0735011 C41.1664435,46.0735011 38.544015,44.7623965 36.8970782,42.5661153 L35.948988,41.3019219 L34.4500189,41.8017244 L28.270882,43.8614367 C27.201787,43.7165379 26.3749208,42.7976028 26.3749208,41.6892689 L26.3749208,40.9371538 C26.3749208,39.6214457 28.7921672,35.7957647 30.4932493,34.0946825 L36.6934306,27.8945013 L36.6934306,27.8945013 Z M43.9118498,16.4799334 C45.724949,16.4799334 47.200024,15.0048585 47.200024,13.1917592 C47.200024,11.37866 45.724949,9.90358506 43.9118498,9.90358506 C42.0987505,9.90358506 40.6236756,11.37866 40.6236756,13.1917592 C40.6236756,15.0048585 42.0987505,16.4799334 43.9118498,16.4799334 L43.9118498,16.4799334 Z M43.9118498,12.0957012 C44.517093,12.0957012 45.0079078,12.5862968 45.0079078,13.1917592 C45.0079078,13.7970025 44.517093,14.2878173 43.9118498,14.2878173 C43.3066065,14.2878173 42.8157917,13.7970025 42.8157917,13.1917592 C42.8157917,12.5862968 43.3066065,12.0957012 43.9118498,12.0957012 L43.9118498,12.0957012 Z M15.9257609,50.9961171 C13.6865142,46.9371949 9.41736808,44.1553995 4.45375954,44.1553995 C2.90656398,44.1553995 1.44113435,44.4596652 0.069527289,44.9583716 L0.069527289,65.8025462 L47.1274649,65.8025462 C45.6412102,64.6117887 43.7741849,63.8844446 41.7197336,63.8844446 C40.0765234,63.8844446 38.5565101,64.3647373 37.2421173,65.1512685 C36.8517014,61.4796932 34.2266423,58.5010458 30.7289018,57.6088546 C30.7324092,57.506702 30.759153,57.4111257 30.759153,57.3080962 C30.759153,52.4652733 26.8332923,48.5396317 21.9906885,48.5396317 C19.63241,48.5396317 17.5014539,49.481584 15.9257609,50.9961171 Z M34.6157429,63.6104301 L2.26164341,63.6104301 L2.26164341,46.5952247 C3.00038655,46.4305968 3.73343018,46.3475156 4.45375954,46.3475156 C8.40373358,46.3475156 12.0641291,48.5345899 14.006344,52.0549092 L15.3858426,54.555456 L17.4446781,52.5764136 C18.6825661,51.3869714 20.2970596,50.7317479 21.9906885,50.7317479 C25.5848821,50.7317479 28.5150838,53.6301638 28.5663793,57.21252 C28.5521305,57.3186184 28.5418276,57.4253745 28.538101,57.5345418 L28.4784754,59.2970032 L30.1872299,59.7330151 C32.2153758,60.2503545 33.8452141,61.7206068 34.6157429,63.6104301 L34.6157429,63.6104301 Z M57.0645465,59.5002124 C53.0854173,59.5002124 49.7761988,62.1684561 48.7106112,65.8025462 L87.7541723,65.8025462 L87.7541723,39.9873099 C87.0404192,39.8597287 86.313952,39.7711673 85.5620561,39.7711673 C80.4658246,39.7711673 76.0964987,42.7007112 73.9127126,46.9391678 C72.7329157,46.5919366 71.5094957,46.3475156 70.2172433,46.3475156 C62.9532281,46.3475156 57.0645465,52.2361972 57.0645465,59.5002124 L57.0645465,59.5002124 Z M70.2172433,48.5396317 C71.1517424,48.5396317 72.1294262,48.6992178 73.293659,49.0420648 L75.0315687,49.5537047 L75.8612846,47.943157 C77.7618493,44.2547024 81.4790206,41.9632834 85.5620561,41.9632834 L85.5620561,63.6104301 L52.4575953,63.6104301 C53.6463798,62.4063007 55.2806024,61.6923285 57.0645465,61.6923285 L59.2566626,61.6923285 L59.2566626,59.5002124 C59.2566626,53.4565482 64.1735791,48.5396317 70.2172433,48.5396317 L70.2172433,48.5396317 Z" id="Shape" sketch:type="MSShapeGroup"></path>
            </g>
        </g>
    </g>
</svg>