<?xml version="1.0" encoding="UTF-8" standalone="no"?>
<svg width="52px" height="46px" viewBox="0 0 52 46" version="1.1" xmlns="http://www.w3.org/2000/svg" xmlns:xlink="http://www.w3.org/1999/xlink" xmlns:sketch="http://www.bohemiancoding.com/sketch/ns">
    <!-- Generator: Sketch 3.3.3 (12072) - http://www.bohemiancoding.com/sketch -->
    <title>1441055437_custom-coding</title>
    <desc>Created with Sketch.</desc>
    <defs></defs>
    <g id="Page-1" stroke="none" stroke-width="1" fill="none" fill-rule="evenodd" sketch:type="MSPage">
        <g id="makers-home-hover" sketch:type="MSArtboardGroup" transform="translate(-874.000000, -2108.000000)" stroke="#E9493F" stroke-width="0.5" fill="#E9493F">
            <g id="1441055437_custom-coding" sketch:type="MSLayerGroup" transform="translate(874.312239, 2108.429450)">
                <path d="M48.875,0 L2.125,0 C0.95625,0 0,0.964285714 0,2.14285714 L0,34.2857143 C0,35.4642857 0.95625,36.4285714 2.125,36.4285714 L19.0826063,36.4285714 L19.0891938,36.5342143 C19.132225,37.2267857 19.079525,38.0327143 18.9536188,38.8583571 L18.0808813,41.9477143 C17.813875,42.5465357 17.4994813,43.089 17.133875,43.5215357 L16.7888813,43.9285714 L14.875,43.9285714 L14.875,45 L36.125,45 L36.125,43.9285714 L34.7285562,43.9285714 L34.3849438,43.5215357 C34.0189125,43.0883571 33.7042,42.5449286 33.436875,41.9451429 L32.564775,38.8580357 C32.4387625,38.0323929 32.3860625,37.2264643 32.4290937,36.5342143 L32.435575,36.4285714 L48.875,36.4285714 C50.04375,36.4285714 51,35.4642857 51,34.2857143 L51,2.14285714 C51,0.964285714 50.04375,0 48.875,0 L48.875,0 Z M33.3689813,43.9285714 L18.148775,43.9285714 C19.6228875,41.9601429 20.2867375,38.6824286 20.1495688,36.46725 L20.1472313,36.4285714 L31.3710563,36.4285714 L31.3686125,36.46725 C31.2310188,38.6814643 31.8952938,41.9600357 33.3689813,43.9285714 L33.3689813,43.9285714 Z M49.9375,34.2857143 C49.9375,34.8765 49.4608625,35.3571429 48.875,35.3571429 L2.125,35.3571429 C1.5391375,35.3571429 1.0625,34.8765 1.0625,34.2857143 L1.0625,27.8571429 L49.9375,27.8571429 L49.9375,34.2857143 L49.9375,34.2857143 Z M49.9375,26.7857143 L1.0625,26.7857143 L1.0625,2.14285714 C1.0625,1.55207143 1.5391375,1.07142857 2.125,1.07142857 L48.875,1.07142857 C49.4608625,1.07142857 49.9375,1.55207143 49.9375,2.14285714 L49.9375,26.7857143 L49.9375,26.7857143 Z M25.5,33.2142857 C26.380175,33.2142857 27.09375,32.4947143 27.09375,31.6071429 C27.09375,30.7195714 26.380175,30 25.5,30 C24.619825,30 23.90625,30.7195714 23.90625,31.6071429 C23.90625,32.4947143 24.619825,33.2142857 25.5,33.2142857 L25.5,33.2142857 Z M25.5,31.0714286 C25.7929313,31.0714286 26.03125,31.31175 26.03125,31.6071429 C26.03125,31.9025357 25.7929313,32.1428571 25.5,32.1428571 C25.2070688,32.1428571 24.96875,31.9025357 24.96875,31.6071429 C24.96875,31.31175 25.2070688,31.0714286 25.5,31.0714286 L25.5,31.0714286 Z M8.5,13.8528214 L19.125,7.95996429 L19.125,9.183 L9.60245,14.4642857 L19.125,19.7455714 L19.125,20.9686071 L8.5,15.07575 L8.5,13.8528214 L8.5,13.8528214 Z M28.1343625,4.28571429 L29.2550875,4.28571429 L22.8724375,23.5714286 L21.7526687,23.5714286 L28.1343625,4.28571429 L28.1343625,4.28571429 Z M31.875,7.95996429 L42.5,13.8528214 L42.5,15.07575 L31.875,20.9686071 L31.875,19.7455714 L41.39755,14.4642857 L31.875,9.183 L31.875,7.95996429 L31.875,7.95996429 Z" id="Shape" sketch:type="MSShapeGroup"></path>
            </g>
        </g>
    </g>
</svg>