<?xml version="1.0" encoding="UTF-8" standalone="no"?>
<svg width="78px" height="70px" viewBox="0 0 78 70" version="1.1" xmlns="http://www.w3.org/2000/svg" xmlns:xlink="http://www.w3.org/1999/xlink" xmlns:sketch="http://www.bohemiancoding.com/sketch/ns">
    <!-- Generator: Sketch 3.3.3 (12072) - http://www.bohemiancoding.com/sketch -->
    <title>1441116019_005_-_earth</title>
    <desc>Created with Sketch.</desc>
    <defs></defs>
    <g id="Page-1" stroke="none" stroke-width="1" fill="none" fill-rule="evenodd" sketch:type="MSPage">
        <g id="about" sketch:type="MSArtboardGroup" transform="translate(-291.000000, -2459.000000)" fill="#E94B44">
            <g id="Eco-System-+-1441116019_005_-_earth" sketch:type="MSLayerGroup" transform="translate(265.000000, 2458.000000)">
                <g id="1441116019_005_-_earth" transform="translate(25.000000, 0.000000)" sketch:type="MSShapeGroup">
                    <path d="M8.47733333,8.78266667 C4.42533333,8.78266667 1.12933333,12.0786667 1.12933333,16.1293333 C1.12933333,20.1813333 4.42533333,23.4786667 8.47733333,23.4786667 C12.5293333,23.4786667 15.8266667,20.1813333 15.8266667,16.1293333 C15.8266667,12.0786667 12.5293333,8.78266667 8.47733333,8.78266667 L8.47733333,8.78266667 Z M8.47733333,21.4773333 C5.52933333,21.4773333 3.12933333,19.0786667 3.12933333,16.128 C3.12933333,13.18 5.528,10.7813333 8.47733333,10.7813333 C11.4266667,10.7813333 13.8266667,13.18 13.8266667,16.128 C13.8266667,19.08 11.4266667,21.4773333 8.47733333,21.4773333 L8.47733333,21.4773333 Z M44.412,7.02533333 C27.548,7.02533333 13.828,20.7453333 13.828,37.6093333 C13.828,54.4733333 27.548,68.1933333 44.412,68.1933333 C61.2746667,68.1933333 74.996,54.4746667 74.996,37.6093333 C74.9946667,20.7453333 61.2746667,7.02533333 44.412,7.02533333 L44.412,7.02533333 Z M38.744,9.59333333 C39.0253333,9.87866667 39.328,10.176 39.652,10.484 C40.1253333,10.936 40.7306667,11.512 41.0853333,11.936 C40.3253333,12.2386667 38.5573333,12.5293333 36.8213333,12.5293333 C34.9653333,12.5293333 33.5693333,13.9306667 32.3346667,15.168 C31.784,15.72 31.264,16.2426667 30.7426667,16.616 C30.3893333,16.8693333 30.1066667,17.0533333 29.884,17.1973333 C28.5973333,18.0333333 28.5226667,18.4653333 28.7786667,20.0586667 C28.8226667,20.328 28.7586667,20.6093333 28.608,20.8106667 C28.5226667,20.9253333 28.4386667,20.9693333 28.424,20.9746667 C28.3946667,20.9653333 28.28,20.884 28.148,20.636 C27.5853333,19.584 26.7546667,19.2626667 26.156,19.1773333 C24.804,18.9826667 23.4466667,19.8226667 22.6946667,20.5986667 C21.7906667,21.5306667 21.512,22.9213333 22.048,23.836 C22.456,24.5333333 23.2426667,24.8213333 24.1066667,24.5946667 C24.4306667,24.508 24.7173333,24.5506667 24.9186667,24.716 C25.096,24.8613333 25.1826667,25.088 25.1653333,25.352 C25.0933333,26.4 25.4586667,27.356 26.1413333,27.9093333 C26.7373333,28.3933333 27.52,28.532 28.3506667,28.3 C28.9013333,28.144 29.3746667,27.964 29.8093333,27.7986667 C30.6106667,27.4933333 31.1386667,27.2893333 31.7853333,27.3986667 C32.7373333,27.5546667 33.448,27.2093333 33.9626667,26.956 C34.5226667,26.68 34.6386667,26.648 34.96,26.8226667 C35.2906667,27 35.6106667,27.336 35.9493333,27.692 C36.6533333,28.432 37.6346667,29.4573333 39.2453333,29.368 C40.0946667,29.34 40.8813333,30.436 41.5973333,31.4106667 C41.916,31.8466667 42.2186667,32.2586667 42.536,32.5946667 C43.2626667,33.3613333 44.088,33.464 44.8173333,33.5546667 C45.5253333,33.6426667 46.1946667,33.7266667 47.036,34.4293333 C47.5746667,34.88 47.6586667,35.1666667 46.4733333,36.624 C46.1773333,36.988 45.8973333,37.332 45.7253333,37.6853333 C45.3186667,38.5173333 45.444,39.42 45.5533333,40.2146667 C45.736,41.5346667 45.7,41.8453333 44.9133333,42.1346667 C44.6146667,42.2453333 44.3146667,42.336 44.0226667,42.4253333 C42.6786667,42.84 41.0066667,43.352 40.684,45.4333333 C40.592,46.0373333 40.2333333,46.3733333 39.82,46.764 C39.432,47.128 38.992,47.5426667 38.8933333,48.1826667 L38.8506667,48.5106667 C38.7733333,49.1666667 38.744,49.2946667 38.2493333,49.4426667 C37.3853333,49.7 36.6586667,50.424 36.256,51.432 C35.764,52.664 35.856,54.0746667 36.504,55.2053333 C36.7173333,55.576 36.7986667,56.136 36.6786667,56.4026667 C36.656,56.4506667 36.6373333,56.492 36.504,56.52 C36.432,56.536 36.2813333,56.5666667 36.0333333,56.3666667 C35.3066667,55.776 34.7426667,54.0346667 34.7426667,52.932 C34.7426667,51.752 33.9533333,50.8826667 33.3213333,50.184 C32.8893333,49.708 32.4426667,49.216 32.4426667,48.84 C32.4426667,48.312 32.5586667,47.9573333 32.7186667,47.4653333 C32.944,46.772 33.224,45.9106667 33.224,44.3946667 C33.224,42.728 31.8266667,41.7333333 30.704,40.9333333 C29.948,40.3946667 29.1666667,39.84 29.1266667,39.3293333 C29.0226667,37.9826667 28.2026667,37.2093333 27.5426667,36.588 C26.872,35.9546667 26.4906667,35.56 26.4786667,34.7893333 C26.4613333,33.7733333 26.9013333,33.2453333 27.368,32.6853333 C27.7733333,32.1986667 28.2773333,31.5933333 28.1253333,30.7573333 C27.8986667,29.5066667 26.74,29.28 26.048,29.144 C25.5613333,29.048 25.2346667,28.972 25.1373333,28.8 C24.1613333,27.0613333 22.864,26.8946667 21.8413333,26.948 C20.8053333,26.9973333 20.5586667,26.8573333 20.4653333,26.1426667 C20.3546667,25.2813333 19.9493333,24.34 19.524,23.588 C23.5426667,16.4906667 30.4986667,11.2586667 38.744,9.59333333 L38.744,9.59333333 Z M44.412,66.192 C41.1546667,66.192 38.0346667,65.6186667 35.1146667,64.608 C35.588,62.8866667 36.1186667,62.712 36.908,62.4773333 C37.1853333,62.3933333 37.4626667,62.308 37.7346667,62.188 C38.424,61.8786667 38.708,61.2813333 38.896,60.8853333 C39.0893333,60.4813333 39.14,60.4186667 39.312,60.372 C39.5933333,60.2906667 39.7906667,60.336 39.9093333,60.4946667 C40.04,60.6773333 40.072,61.0106667 39.848,61.3466667 L39.5626667,61.764 C39.1973333,62.2906667 38.8173333,62.8346667 39.1466667,63.4826667 C39.4866667,64.1493333 40.1266667,64.1626667 41.32,64.188 C43.608,64.2293333 46.152,64.1693333 47.356,62.7946667 C47.6413333,62.4693333 48.3826667,61.748 49.0866667,62.0626667 C51.508,63.144 52.732,63.0933333 53.7186667,63.0546667 C54.1266667,63.0386667 54.452,63.0266667 54.8186667,63.1093333 C55.1613333,63.188 55.4493333,63.3226667 55.5226667,63.9426667 C52.1053333,65.392 48.3506667,66.192 44.412,66.192 L44.412,66.192 Z M57.3666667,63.0533333 C56.9613333,61.7693333 55.948,61.3186667 55.2666667,61.16 C54.64,61.02 54.1293333,61.04 53.6373333,61.0586667 C52.784,61.092 51.8986667,61.1293333 49.9013333,60.2386667 C48.5653333,59.64 47.0506667,60.1026667 45.8506667,61.4786667 C45.2293333,62.1866667 43.024,62.216 41.6666667,62.1946667 C42.1613333,61.2573333 42.116,60.1373333 41.5266667,59.3226667 C40.9133333,58.4786667 39.856,58.148 38.772,58.448 C37.7,58.748 37.3173333,59.5493333 37.0893333,60.0293333 C37.032,60.152 36.9453333,60.3346667 36.916,60.3653333 C36.7253333,60.4493333 36.5306667,60.5053333 36.336,60.5626667 C35.1133333,60.9266667 33.9613333,61.4866667 33.24,63.9173333 C23.0146667,59.56 15.8253333,49.4093333 15.8253333,37.6106667 C15.8253333,33.4346667 16.7466667,29.476 18.364,25.8973333 C18.42,26.0826667 18.4613333,26.2573333 18.4813333,26.408 C18.712,28.2013333 19.8626667,29.0693333 21.94,28.9546667 C22.5333333,28.928 22.92,28.9493333 23.392,29.788 C23.948,30.7773333 24.9773333,30.9813333 25.66,31.1146667 C25.7653333,31.136 25.8973333,31.1613333 26.0133333,31.1893333 C25.9546667,31.2653333 25.8866667,31.3453333 25.8293333,31.416 C25.2786667,32.076 24.448,33.0746667 24.4773333,34.8333333 C24.5053333,36.484 25.4666667,37.3906667 26.1693333,38.052 C26.7546667,38.604 27.0866667,38.9426667 27.1306667,39.492 C27.2413333,40.9346667 28.464,41.804 29.5413333,42.572 C30.404,43.188 31.2213333,43.768 31.2213333,44.404 C31.2213333,45.6013333 31.0146667,46.24 30.8133333,46.8546667 C30.6293333,47.42 30.44,48.004 30.44,48.8493333 C30.44,49.9973333 31.1826667,50.816 31.8373333,51.5373333 C32.3026667,52.0506667 32.7413333,52.532 32.7413333,52.9413333 C32.7413333,54.3266667 33.3706667,56.788 34.7693333,57.9266667 C35.268,58.3346667 35.8253333,58.54 36.4026667,58.54 C36.5693333,58.54 36.7373333,58.524 36.9066667,58.488 C37.6373333,58.3373333 38.204,57.8933333 38.5,57.236 C38.9453333,56.2466667 38.6906667,55.0093333 38.2386667,54.2213333 C37.892,53.616 37.8453333,52.8533333 38.1133333,52.184 C38.28,51.7666667 38.5573333,51.4466667 38.8213333,51.3693333 C40.5906667,50.84 40.7506667,49.484 40.8373333,48.7546667 L40.8426667,48.588 C40.8826667,48.5186667 41.0613333,48.3506667 41.1906667,48.228 C41.6986667,47.752 42.464,47.0306667 42.6626667,45.748 C42.784,44.9706667 43.2386667,44.7693333 44.612,44.3466667 C44.9386667,44.2466667 45.2733333,44.1426667 45.608,44.02 C47.9773333,43.148 47.7013333,41.1466667 47.5373333,39.9493333 C47.4626667,39.412 47.3866667,38.8533333 47.524,38.5693333 C47.596,38.424 47.8253333,38.1426667 48.0266667,37.892 C48.7853333,36.96 50.5613333,34.7733333 48.3186667,32.9 C47.0266667,31.8213333 45.8933333,31.6813333 45.0653333,31.5773333 C44.4293333,31.4986667 44.2053333,31.4533333 43.9893333,31.2253333 C43.7386667,30.9626667 43.484,30.608 43.2106667,30.236 C42.2986667,28.992 41.0813333,27.2933333 39.152,27.3773333 C38.4626667,27.4093333 38.064,27.016 37.4013333,26.32 C36.988,25.8866667 36.5213333,25.3946667 35.908,25.0666667 C34.656,24.3946667 33.7093333,24.8613333 33.084,25.168 C32.66,25.376 32.4226667,25.4826667 32.1133333,25.4306667 C30.928,25.236 30.04,25.576 29.0973333,25.936 C28.7133333,26.0813333 28.296,26.2426667 27.8093333,26.3813333 C27.524,26.4626667 27.4346667,26.388 27.404,26.3626667 C27.2626667,26.248 27.1333333,25.912 27.1613333,25.4933333 C27.2226667,24.5813333 26.8706667,23.7386667 26.192,23.1786667 C25.552,22.6506667 24.704,22.452 23.7946667,22.6213333 C23.8306667,22.4466667 23.928,22.2093333 24.132,21.9986667 C24.6493333,21.4653333 25.4146667,21.1 25.88,21.164 C26.0213333,21.184 26.208,21.2493333 26.3866667,21.584 C27.1173333,22.9506667 28.2466667,23.1466667 29.0626667,22.872 C30.2306667,22.4786667 30.9746667,21.1053333 30.7386667,19.6426667 C30.7066667,19.436 30.672,19.2253333 30.656,19.0853333 C30.7386667,19.0266667 30.844,18.964 30.9733333,18.8786667 C31.216,18.7226667 31.5226667,18.5213333 31.9093333,18.2453333 C32.564,17.776 33.1666667,17.1693333 33.752,16.5853333 C34.8026667,15.532 35.796,14.5346667 36.8226667,14.5346667 C37.356,14.5346667 42.0733333,14.488 43.076,12.864 C43.352,12.4186667 43.3733333,11.8893333 43.1346667,11.412 C42.8093333,10.7613333 42.048,10.012 41.2173333,9.21866667 C42.268,9.10133333 43.332,9.028 44.412,9.028 C46.9733333,9.028 49.4426667,9.39733333 51.8066667,10.0333333 C51.0186667,11.0053333 51.104,11.9373333 51.1826667,12.284 C51.444,13.428 52.5293333,14.2066667 53.8813333,14.2226667 C55.5093333,14.2413333 56,14.5773333 56.032,14.7506667 L56.1533333,15.452 C56.3626667,16.7013333 56.5293333,17.6866667 57.4613333,19.2986667 C57.664,19.6533333 57.1706667,20.5773333 56.8106667,21.2546667 C56.5333333,21.7733333 56.2466667,22.312 56.0906667,22.84 C55.7173333,24.108 54.84,27.0826667 57.3093333,28.7453333 C57.988,29.2026667 58.124,29.528 58.3493333,30.0666667 C58.5506667,30.548 58.8026667,31.1493333 59.4346667,31.832 C61.1373333,33.6733333 63.4786667,33.22 64.8786667,32.9466667 L65.256,32.876 C65.328,32.8653333 65.4893333,32.8346667 65.736,33.048 C66.3266667,33.5613333 66.9266667,35.0533333 66.8466667,37.116 C66.792,38.496 66.2173333,39.72 65.6613333,40.9026667 C65.1053333,42.084 64.5786667,43.2 64.664,44.3613333 L64.696,44.7546667 C64.796,45.8946667 65.0053333,48.2653333 64.064,49.428 C63.1746667,50.5253333 63.1533333,51.9293333 64.016,52.8413333 C64.4293333,53.2773333 65.08,53.6053333 65.9093333,53.6053333 C66.6773333,53.6053333 67.6,53.3226667 68.624,52.5826667 C68.6786667,52.544 68.736,52.4933333 68.7906667,52.4493333 C66.0413333,56.9546667 62.0893333,60.6386667 57.3666667,63.0533333 L57.3666667,63.0533333 Z M67.456,50.9586667 C66.3906667,51.728 65.6746667,51.6773333 65.4733333,51.4626667 C65.32,51.3013333 65.3826667,50.9813333 65.6226667,50.684 C67.072,48.892 66.816,45.9786667 66.692,44.5773333 L66.6626667,44.2146667 C66.616,43.576 67.0146667,42.7306667 67.4746667,41.7506667 C68.0853333,40.4506667 68.7786667,38.9786667 68.8466667,37.1906667 C68.9413333,34.748 68.2533333,32.5813333 67.0506667,31.536 C66.4133333,30.9853333 65.6693333,30.7666667 64.9013333,30.9053333 L64.5,30.9826667 C63.0026667,31.276 61.784,31.4213333 60.9026667,30.4706667 C60.5106667,30.0466667 60.3653333,29.6973333 60.196,29.292 C59.9186667,28.628 59.604,27.8746667 58.428,27.084 C57.388,26.3826667 57.5093333,25.1066667 58.0106667,23.4013333 C58.108,23.0693333 58.3346667,22.644 58.576,22.1933333 C59.1906667,21.044 59.9533333,19.6106667 59.1946667,18.296 C58.444,16.996 58.324,16.2893333 58.1266667,15.1186667 L57.9986667,14.3866667 C57.608,12.26 54.82,12.2293333 53.9053333,12.2186667 C53.4546667,12.2133333 53.1746667,12.0213333 53.132,11.8333333 C53.0826667,11.6213333 53.3253333,11.18 54.044,10.7306667 C65.072,14.6973333 72.996,25.2306667 72.996,37.608 C72.996,40.468 72.5626667,43.2226667 71.7786667,45.8293333 C70.0706667,48.3733333 68.5773333,50.148 67.456,50.9586667 L67.456,50.9586667 Z M25.9146667,66.7826667 C24.824,66.7826667 23.936,67.6706667 23.936,68.7613333 C23.936,69.852 24.824,70.74 25.9146667,70.74 C27.0053333,70.74 27.8933333,69.852 27.8933333,68.7613333 C27.8933333,67.6706667 27.0053333,66.7826667 25.9146667,66.7826667 L25.9146667,66.7826667 Z M21.3133333,59.824 C21.3133333,58.7333333 20.4253333,57.8453333 19.3346667,57.8453333 C18.244,57.8453333 17.356,58.7333333 17.356,59.824 C17.356,60.9146667 18.244,61.8026667 19.3346667,61.8026667 C20.4253333,61.8026667 21.3133333,60.916 21.3133333,59.824 L21.3133333,59.824 Z M9.45733333,33.7186667 C8.36666667,33.7186667 7.47866667,34.6066667 7.47866667,35.6973333 C7.47866667,36.788 8.36666667,37.676 9.45733333,37.676 C10.548,37.676 11.436,36.788 11.436,35.6973333 C11.436,34.6066667 10.5493333,33.7186667 9.45733333,33.7186667 L9.45733333,33.7186667 Z M18.356,7.22533333 C19.4466667,7.22533333 20.3346667,6.33733333 20.3346667,5.24666667 C20.3346667,4.156 19.4466667,3.268 18.356,3.268 C17.2653333,3.268 16.3773333,4.156 16.3773333,5.24666667 C16.3773333,6.33733333 17.264,7.22533333 18.356,7.22533333 L18.356,7.22533333 Z M62.8853333,66.192 C61.7946667,66.192 60.9066667,67.08 60.9066667,68.1706667 C60.9066667,69.2613333 61.7946667,70.1493333 62.8853333,70.1493333 C63.976,70.1493333 64.864,69.2613333 64.864,68.1706667 C64.864,67.08 63.976,66.192 62.8853333,66.192 L62.8853333,66.192 Z M72.716,66.7826667 C71.6253333,66.7826667 70.7373333,67.6706667 70.7373333,68.7613333 C70.7373333,69.852 71.6253333,70.74 72.716,70.74 C73.8066667,70.74 74.6946667,69.852 74.6946667,68.7613333 C74.6946667,67.6706667 73.8066667,66.7826667 72.716,66.7826667 L72.716,66.7826667 Z M76.8906667,15.1306667 C75.8,15.1306667 74.912,16.0173333 74.912,17.108 C74.912,18.1986667 75.8,19.0866667 76.8906667,19.0866667 C77.9813333,19.0866667 78.8693333,18.1986667 78.8693333,17.108 C78.8693333,16.0173333 77.9813333,15.1306667 76.8906667,15.1306667 L76.8906667,15.1306667 Z M18.356,63.1546667 C16.696,63.1546667 15.3466667,64.504 15.3466667,66.1626667 C15.3466667,67.8213333 16.696,69.1706667 18.356,69.1706667 C20.0146667,69.1706667 21.364,67.8213333 21.364,66.1626667 C21.364,64.504 20.0146667,63.1546667 18.356,63.1546667 L18.356,63.1546667 Z M18.356,67.1706667 C17.8,67.1706667 17.3466667,66.72 17.3466667,66.1626667 C17.3466667,65.608 17.7986667,65.1546667 18.356,65.1546667 C18.912,65.1546667 19.364,65.608 19.364,66.1626667 C19.364,66.72 18.912,67.1706667 18.356,67.1706667 L18.356,67.1706667 Z M74.7253333,56.3266667 C73.0666667,56.3266667 71.716,57.676 71.716,59.3346667 C71.716,60.9933333 73.0666667,62.3426667 74.7253333,62.3426667 C76.384,62.3426667 77.7333333,60.9933333 77.7333333,59.3346667 C77.7333333,57.676 76.384,56.3266667 74.7253333,56.3266667 L74.7253333,56.3266667 Z M74.7253333,60.3426667 C74.1693333,60.3426667 73.716,59.892 73.716,59.3346667 C73.716,58.78 74.1693333,58.3266667 74.7253333,58.3266667 C75.2813333,58.3266667 75.7333333,58.78 75.7333333,59.3346667 C75.7333333,59.892 75.2813333,60.3426667 74.7253333,60.3426667 L74.7253333,60.3426667 Z M72.716,7.27466667 C74.3746667,7.27466667 75.724,5.92533333 75.724,4.26666667 C75.724,2.608 74.3746667,1.25866667 72.716,1.25866667 C71.0573333,1.25866667 69.7066667,2.608 69.7066667,4.26666667 C69.7066667,5.92533333 71.0573333,7.27466667 72.716,7.27466667 L72.716,7.27466667 Z M72.716,3.25866667 C73.272,3.25866667 73.724,3.712 73.724,4.26666667 C73.724,4.824 73.272,5.27466667 72.716,5.27466667 C72.16,5.27466667 71.7066667,4.824 71.7066667,4.26666667 C71.7066667,3.712 72.16,3.25866667 72.716,3.25866667 L72.716,3.25866667 Z" id="Shape"></path>
                </g>
            </g>
        </g>
    </g>
</svg>