<?xml version="1.0" encoding="UTF-8" standalone="no"?>
<svg width="23px" height="23px" viewBox="0 0 23 23" version="1.1" xmlns="http://www.w3.org/2000/svg" xmlns:xlink="http://www.w3.org/1999/xlink" xmlns:sketch="http://www.bohemiancoding.com/sketch/ns">
    <!-- Generator: Sketch 3.3.3 (12072) - http://www.bohemiancoding.com/sketch -->
    <title>Imported Layers</title>
    <desc>Created with Sketch.</desc>
    <defs></defs>
    <g id="Page-1" stroke="none" stroke-width="1" fill="none" fill-rule="evenodd" sketch:type="MSPage">
        <g id="makers-home" sketch:type="MSArtboardGroup" transform="translate(-844.000000, -2447.000000)" fill="#FFFFFF">
            <g id="Group-Copy-3" sketch:type="MSLayerGroup" transform="translate(0.000000, 2330.000000)">
                <g id="Group-+-Imported-Layers-Copy" transform="translate(572.000000, 115.042969)" sketch:type="MSShapeGroup">
                    <g id="Group" transform="translate(0.000000, 0.350000)">
                        <g id="Shape-+-Shape-+-Group">
                            <g id="Group" transform="translate(0.500000, 0.000000)">
                                <g id="Imported-Layers" transform="translate(271.519892, 2.171936)">
                                    <path d="M12.8900996,7.79514653 L9.66757467,7.79514653 L9.66757467,11.1359236 L12.8900996,11.1358308 C13.832309,11.1358308 14.5960474,10.3880535 14.5960474,9.46553507 C14.5960474,8.54301659 13.832309,7.79514653 12.8900996,7.79514653" id="Fill-1"></path>
                                    <path d="M11.3736173,0 C5.09215801,0 0,4.9857386 0,11.1359236 C0,17.2861086 5.09215801,22.2718472 11.3736173,22.2718472 C17.6550765,22.2718472 22.7472345,17.2861086 22.7472345,11.1359236 C22.7472345,4.9857386 17.6550765,0 11.3736173,0 L11.3736173,0 Z M12.8900996,13.3631083 L9.66757467,13.3631083 L9.66757467,16.7038854 L7.39285122,16.7038854 L7.39285122,5.5679618 L12.8900996,5.5679618 C15.0886198,5.5679618 16.8708656,7.31296103 16.8708656,9.46553507 C16.8708656,11.6181091 15.0886198,13.3631083 12.8900996,13.3631083 L12.8900996,13.3631083 Z" id="Fill-2"></path>
                                </g>
                            </g>
                        </g>
                    </g>
                </g>
            </g>
        </g>
    </g>
</svg>