<?xml version="1.0" encoding="UTF-8" standalone="no"?>
<svg width="19px" height="27px" viewBox="0 0 19 27" version="1.1" xmlns="http://www.w3.org/2000/svg" xmlns:xlink="http://www.w3.org/1999/xlink" xmlns:sketch="http://www.bohemiancoding.com/sketch/ns">
    <!-- Generator: Sketch 3.3.3 (12072) - http://www.bohemiancoding.com/sketch -->
    <title>Imported Layers</title>
    <desc>Created with Sketch.</desc>
    <defs></defs>
    <g id="Page-1" stroke="none" stroke-width="1" fill="none" fill-rule="evenodd" sketch:type="MSPage">
        <g id="makers-home" sketch:type="MSArtboardGroup" transform="translate(-792.000000, -2446.000000)" fill="#FFFFFF">
            <g id="Group-Copy-3" sketch:type="MSLayerGroup" transform="translate(0.000000, 2330.000000)">
                <g id="Group-+-Imported-Layers-Copy" transform="translate(572.000000, 115.042969)" sketch:type="MSShapeGroup">
                    <g id="Group" transform="translate(0.000000, 0.350000)">
                        <g id="Shape-+-Shape-+-Group">
                            <g id="Group" transform="translate(0.500000, 0.000000)">
                                <path d="M226.536659,3.00925775 C226.252943,2.28379346 225.898866,1.07972204 225.233188,0.756686321 C224.708557,0.502436321 224.199166,0.738364892 224.003645,1.08904346 C223.49166,2.00832918 224.017264,3.53415061 224.301952,4.44861489 C224.998758,6.69122204 225.92286,9.05918632 226.648524,11.0575077 C227.162131,10.6486506 228.423449,10.7916863 229.329718,10.8730077 C228.481489,8.36265061 227.533068,5.55143632 226.536659,3.00925775 L226.536659,3.00925775 Z M236.741669,4.78129346 C237.004633,3.95361489 237.430368,3.25836489 237.336985,2.30790061 C237.280566,1.72000775 236.926165,1.23850775 236.332145,1.27386489 C235.424904,1.32786489 234.91681,2.69747204 234.619151,3.41522204 C233.573132,5.93586489 232.684048,8.64390061 231.900344,11.168722 C232.790725,11.2580792 233.569565,11.4576863 234.433034,11.5746863 C235.204416,9.57218632 236.022166,7.04800775 236.741669,4.78129346 L236.741669,4.78129346 Z M223.892429,22.9458649 C224.533788,23.1583292 225.387529,22.9927935 225.493882,22.391722 C225.599262,21.7948292 225.073659,21.230722 224.897593,20.9520435 C224.232563,19.8958292 223.85968,19.4236506 223.03577,18.5889006 C222.708929,18.2578292 222.251417,17.7448292 221.769587,17.702722 C220.982317,17.6339363 220.351657,18.4619363 220.093233,18.9212577 C219.351033,20.2432935 220.044596,22.0548649 220.688874,23.0930792 C222.213481,25.5478292 224.660893,27.546472 228.547636,27.5233292 C231.840359,27.5030792 234.089008,25.8596149 235.51245,24.1267935 C237.089261,22.2069006 238.030873,19.4496863 237.821085,16.1148649 C237.781851,15.486472 237.690738,14.7947577 237.336661,14.2319363 C236.739399,13.2805077 234.989441,12.8684363 233.464185,12.5338292 C232.73917,12.3750435 231.916557,12.255472 231.043361,12.1648292 C229.887422,12.0455792 227.917625,11.7215792 227.392994,12.3862935 C226.937752,12.9632577 227.315823,13.8802935 227.542147,14.2319363 C228.375461,15.5276149 230.836816,15.7089006 232.942148,15.7089006 C234.032265,15.7089006 235.538714,15.4646149 235.363621,16.521472 C235.283532,17.0026506 234.069878,17.2781149 233.464185,17.5179006 C232.777755,17.7901506 232.120508,18.2330792 231.67629,18.6255435 C230.823198,19.3802577 229.666935,20.7119363 229.553448,22.2805077 C229.446447,23.7571506 230.224314,24.166972 230.074188,25.676722 C228.482138,25.3858292 228.273972,23.721472 228.175401,21.948472 C227.809975,22.1111149 227.283399,22.1281506 226.834642,22.0220792 C227.449413,24.2447577 225.179687,25.0627935 223.519221,24.2746506 C222.868459,23.9654363 222.194674,23.3473292 221.694686,22.6871149 C221.165516,21.9886506 220.635049,21.0291863 221.172974,20.213722 C222.022499,20.9398292 222.598037,22.5167577 223.892429,22.9458649 L223.892429,22.9458649 Z M222.477417,14.5282935 C222.420026,15.2386506 222.992645,16.0637577 223.2595,16.5221149 C223.971869,17.7457935 224.731579,18.7194006 225.680324,19.660222 C226.10606,20.0822577 226.786977,20.7752577 227.468543,20.6942577 C227.801545,20.6544006 228.22501,20.2455435 228.287266,19.8820077 C228.400104,19.2295077 227.926704,18.4121149 227.691301,17.851222 C227.181261,16.6355792 226.509422,15.3871506 225.829477,14.4546863 C225.369372,13.8243649 224.806156,13.0490792 223.930366,13.1255792 C223.372338,13.1737935 222.532539,13.8414006 222.477417,14.5282935 L222.477417,14.5282935 Z M229.516484,18.9588649 C230.139362,18.2469006 230.85465,17.6268649 231.602038,17.038972 C230.462635,17.0113292 229.401701,16.7101506 228.54796,16.5221149 C228.929274,17.2761863 229.244766,18.0961506 229.516484,18.9588649 L229.516484,18.9588649 Z" id="Imported-Layers"></path>
                            </g>
                        </g>
                    </g>
                </g>
            </g>
        </g>
    </g>
</svg>