<?xml version="1.0" encoding="UTF-8" standalone="no"?>
<svg width="24px" height="23px" viewBox="0 0 24 23" version="1.1" xmlns="http://www.w3.org/2000/svg" xmlns:xlink="http://www.w3.org/1999/xlink" xmlns:sketch="http://www.bohemiancoding.com/sketch/ns">
    <!-- Generator: Sketch 3.3.3 (12072) - http://www.bohemiancoding.com/sketch -->
    <title>Group</title>
    <desc>Created with Sketch.</desc>
    <defs></defs>
    <g id="Page-1" stroke="none" stroke-width="1" fill="none" fill-rule="evenodd" sketch:type="MSPage">
        <g id="makers-home" sketch:type="MSArtboardGroup" transform="translate(-619.000000, -2447.000000)" fill="#FFFFFF">
            <g id="Group-Copy-3" sketch:type="MSLayerGroup" transform="translate(0.000000, 2330.000000)">
                <g id="Group-+-Imported-Layers-Copy" transform="translate(572.000000, 115.042969)" sketch:type="MSShapeGroup">
                    <g id="Group" transform="translate(0.000000, 0.350000)">
                        <g id="Shape-+-Shape-+-Group">
                            <g id="Group" transform="translate(0.500000, 0.000000)">
                                <g transform="translate(46.991122, 2.065585)" id="Shape">
                                    <path d="M5.0407313,22.29864 L5.0407313,7.3951349 L0.0813021178,7.3951349 L0.0813021178,22.29864 L5.0407313,22.29864 L5.0407313,22.29864 Z M2.74620487,5.13913968 C4.39934793,5.13913968 5.42917475,3.99807647 5.42917475,2.56956984 C5.40207405,1.114932 4.39934793,0 2.77330557,0 C1.14726322,0 0.0903356864,1.114932 0.0903356864,2.56956984 C0.0903356864,3.99807647 1.12016251,5.13913968 2.71007059,5.13913968 L2.74620487,5.13913968 L2.74620487,5.13913968 Z"></path>
                                    <path d="M17.4889889,7.05542906 C14.8602204,7.05542906 13.7310243,8.48393568 13.0083388,9.47692199 L13.0083388,7.40384531 L8.03987609,7.40384531 L8.03987609,22.29864 L13.0083388,22.29864 L13.0083388,13.8147043 C13.0083388,13.379184 13.0444731,12.9436637 13.1799766,12.6387995 C13.5413194,11.7677588 14.3543406,10.870587 15.727443,10.870587 C17.5251232,10.870587 18.2478087,12.2032791 18.2478087,14.1544101 L18.2478087,22.29864 L23.2162714,22.29864 L23.2162714,13.5969441 C23.2162714,9.12850574 20.7591407,7.05542906 17.4889889,7.05542906 L17.4889889,7.05542906 Z"></path>
                                </g>
                            </g>
                        </g>
                    </g>
                </g>
            </g>
        </g>
    </g>
</svg>