<?xml version="1.0" encoding="UTF-8" standalone="no"?>
<svg width="26px" height="21px" viewBox="0 0 26 21" version="1.1" xmlns="http://www.w3.org/2000/svg" xmlns:xlink="http://www.w3.org/1999/xlink" xmlns:sketch="http://www.bohemiancoding.com/sketch/ns">
    <!-- Generator: Sketch 3.3.3 (12072) - http://www.bohemiancoding.com/sketch -->
    <title>path14</title>
    <desc>Created with Sketch.</desc>
    <defs></defs>
    <g id="Page-1" stroke="none" stroke-width="1" fill="none" fill-rule="evenodd" sketch:type="MSPage">
        <g id="makers-home" sketch:type="MSArtboardGroup" transform="translate(-734.000000, -2449.000000)" fill="#FFFFFF">
            <g id="Group-Copy-3" sketch:type="MSLayerGroup" transform="translate(0.000000, 2330.000000)">
                <g id="Group-+-Imported-Layers-Copy" transform="translate(572.000000, 115.042969)" sketch:type="MSShapeGroup">
                    <g id="Group" transform="translate(0.000000, 0.350000)">
                        <g id="Shape-+-Shape-+-Group">
                            <g id="Group" transform="translate(0.500000, 0.000000)">
                                <path d="M187.341841,21.0626405 L186.329578,21.0626405 C185.953765,21.0626405 185.422253,20.5318359 185.422253,20.1920066 L185.422253,7.87501456 C185.422253,7.53476755 185.953765,7.07101837 186.329578,7.07101837 L187.341841,7.07101837 L187.341841,4.14739583 L178.170474,4.14739583 L178.170474,7.07101837 L180.090062,7.07101837 L180.090062,20.0184896 L179.996002,20.0184896 L175.513379,4.14739583 L172.04287,4.14739583 L167.618069,20.0184896 L167.506093,20.0184896 L167.506093,7.07101837 L169.425682,7.07101837 L169.425682,4.14739583 L161.747328,4.14739583 L161.747328,7.07101837 L162.730535,7.07101837 C163.135446,7.07101837 163.666916,7.53476755 163.666916,7.87501456 L163.666916,20.1920066 C163.666916,20.5318359 163.135446,21.0626405 162.730535,21.0626405 L161.747328,21.0626405 L161.747328,23.986263 L171.348768,23.986263 L174.501095,12.5006031 L174.587818,12.5006031 L177.769301,23.986263 L187.341841,23.986263 L187.341841,21.0626405" id="path14" transform="translate(174.544584, 14.066829) scale(1, -1) translate(-174.544584, -14.066829) "></path>
                            </g>
                        </g>
                    </g>
                </g>
            </g>
        </g>
    </g>
</svg>