<?xml version="1.0" encoding="UTF-8" standalone="no"?>
<svg width="97px" height="96px" viewBox="0 0 97 96" version="1.1" xmlns="http://www.w3.org/2000/svg" xmlns:xlink="http://www.w3.org/1999/xlink" xmlns:sketch="http://www.bohemiancoding.com/sketch/ns">
    <!-- Generator: Sketch 3.3.3 (12072) - http://www.bohemiancoding.com/sketch -->
    <title>Shape Copy</title>
    <desc>Created with Sketch.</desc>
    <defs></defs>
    <g id="Page-1" stroke="none" stroke-width="1" fill="none" fill-rule="evenodd" sketch:type="MSPage">
        <g id="AboutUs_Process" sketch:type="MSArtboardGroup" transform="translate(-83.000000, -1086.000000)" stroke="#FFFFFF" stroke-width="0.5" fill="#FFFFFF">
            <path d="M91.9166667,1102.14333 C96.2890417,1102.14333 99.8333333,1098.59884 99.8333333,1094.22667 C99.8333333,1089.85429 96.2890417,1086.31 91.9166667,1086.31 C87.5442917,1086.31 84,1089.85429 84,1094.22667 C84,1098.59884 87.5442917,1102.14333 91.9166667,1102.14333 L91.9166667,1102.14333 Z M91.9166667,1088.28917 C95.1906042,1088.28917 97.8541667,1090.95273 97.8541667,1094.22667 C97.8541667,1097.5006 95.1906042,1100.16417 91.9166667,1100.16417 C88.6427292,1100.16417 85.9791667,1097.5006 85.9791667,1094.22667 C85.9791667,1090.95273 88.6427292,1088.28917 91.9166667,1088.28917 L91.9166667,1088.28917 Z M123.583333,1102.14333 C127.955708,1102.14333 131.5,1098.59884 131.5,1094.22667 C131.5,1089.85429 127.955708,1086.31 123.583333,1086.31 C119.210958,1086.31 115.666667,1089.85429 115.666667,1094.22667 C115.666667,1098.59884 119.210958,1102.14333 123.583333,1102.14333 L123.583333,1102.14333 Z M123.583333,1088.28917 C126.857271,1088.28917 129.520833,1090.95273 129.520833,1094.22667 C129.520833,1097.5006 126.857271,1100.16417 123.583333,1100.16417 C120.309396,1100.16417 117.645833,1097.5006 117.645833,1094.22667 C117.645833,1090.95273 120.309396,1088.28917 123.583333,1088.28917 L123.583333,1088.28917 Z M139.416667,1108.08083 C142.695948,1108.08083 145.354167,1105.42261 145.354167,1102.14333 C145.354167,1098.86405 142.695948,1096.20583 139.416667,1096.20583 C136.137385,1096.20583 133.479167,1098.86405 133.479167,1102.14333 C133.479167,1105.42261 136.137385,1108.08083 139.416667,1108.08083 L139.416667,1108.08083 Z M139.416667,1098.185 C141.599292,1098.185 143.375,1099.96071 143.375,1102.14333 C143.375,1104.32596 141.599292,1106.10167 139.416667,1106.10167 C137.234042,1106.10167 135.458333,1104.32596 135.458333,1102.14333 C135.458333,1099.96071 137.234042,1098.185 139.416667,1098.185 L139.416667,1098.185 Z M127.541667,1149.64333 C118.797115,1149.64333 111.708333,1156.73211 111.708333,1165.47667 C111.708333,1174.22122 118.797115,1181.31 127.541667,1181.31 C136.286219,1181.31 143.375,1174.22122 143.375,1165.47667 C143.375,1156.73211 136.286219,1149.64333 127.541667,1149.64333 L127.541667,1149.64333 Z M127.541667,1179.33083 C119.902479,1179.33083 113.6875,1173.11585 113.6875,1165.47667 C113.6875,1157.83748 119.902479,1151.6225 127.541667,1151.6225 C135.180854,1151.6225 141.395833,1157.83748 141.395833,1165.47667 C141.395833,1173.11585 135.180854,1179.33083 127.541667,1179.33083 L127.541667,1179.33083 Z M123.583333,1161.51833 C123.583333,1163.1553 125.358646,1164.48708 127.541667,1164.48708 C130.815802,1164.48708 133.479167,1166.70692 133.479167,1169.435 C133.479167,1172.3703 131.333552,1174.79795 128.53125,1175.27255 L128.53125,1177.35167 L126.552083,1177.35167 L126.552083,1175.27255 C123.749781,1174.79795 121.604167,1172.3703 121.604167,1169.435 L123.583333,1169.435 C123.583333,1171.61802 125.358646,1173.39333 127.541667,1173.39333 C129.724688,1173.39333 131.5,1171.61802 131.5,1169.435 C131.5,1167.79803 129.724688,1166.46625 127.541667,1166.46625 C124.267531,1166.46625 121.604167,1164.24642 121.604167,1161.51833 C121.604167,1158.58303 123.749781,1156.15539 126.552083,1155.68078 L126.552083,1153.60167 L128.53125,1153.60167 L128.53125,1155.68078 C131.333552,1156.15539 133.479167,1158.58303 133.479167,1161.51833 L131.5,1161.51833 C131.5,1159.33531 129.724688,1157.56 127.541667,1157.56 C125.358646,1157.56 123.583333,1159.33531 123.583333,1161.51833 L123.583333,1161.51833 Z M97.8541667,1108.08083 C97.8541667,1103.70846 101.398458,1100.16417 105.770833,1100.16417 C110.143208,1100.16417 113.6875,1103.70846 113.6875,1108.08083 L111.708333,1108.08083 C111.708333,1104.8069 109.044771,1102.14333 105.770833,1102.14333 C102.496896,1102.14333 99.8333333,1104.8069 99.8333333,1108.08083 L97.8541667,1108.08083 L97.8541667,1108.08083 Z M170.09375,1121.935 L163.166667,1121.935 L167.125,1117.97667 C169.302083,1117.97667 171.083333,1116.19542 171.083333,1114.01833 C171.083333,1111.84125 169.302083,1110.06 167.125,1110.06 L127.541667,1110.06 L87.9583333,1110.06 C85.78125,1110.06 84,1111.84125 84,1114.01833 C84,1116.19542 85.78125,1117.97667 87.9583333,1117.97667 L112.27675,1142.29508 C114.487083,1144.50542 115.993823,1147.32058 116.606771,1150.38572 L116.791031,1151.30761 C117.35925,1150.87536 117.95201,1150.47597 118.570698,1150.11339 L118.547542,1149.99741 C117.855427,1146.53782 116.171156,1143.39035 113.676219,1140.89542 L90.7572708,1117.97667 L127.541667,1117.97667 L164.326062,1117.97667 L141.407115,1140.89561 C138.912177,1143.39055 137.227906,1146.53782 136.535792,1149.9976 L136.512635,1150.11339 C137.131323,1150.47597 137.724083,1150.87536 138.292302,1151.30761 L138.476562,1150.38572 C139.089708,1147.32058 140.59625,1144.50542 142.806583,1142.29508 L143.375,1141.72667 L170.09375,1141.72667 C175.004854,1141.72667 179,1137.73152 179,1132.82042 L179,1130.84125 C179,1125.93015 175.004854,1121.935 170.09375,1121.935 L170.09375,1121.935 Z M127.541667,1115.9975 L87.9583333,1115.9975 C86.8670208,1115.9975 85.9791667,1115.10965 85.9791667,1114.01833 C85.9791667,1112.92702 86.8670208,1112.03917 87.9583333,1112.03917 L127.541667,1112.03917 L167.125,1112.03917 C168.216312,1112.03917 169.104167,1112.92702 169.104167,1114.01833 C169.104167,1115.10965 168.216312,1115.9975 167.125,1115.9975 L127.541667,1115.9975 L127.541667,1115.9975 Z M177.020833,1132.82042 C177.020833,1136.63961 173.912948,1139.7475 170.09375,1139.7475 L145.354167,1139.7475 L161.1875,1123.91417 L170.09375,1123.91417 C173.912948,1123.91417 177.020833,1127.02205 177.020833,1130.84125 L177.020833,1132.82042 L177.020833,1132.82042 Z" id="Shape-Copy" sketch:type="MSShapeGroup"></path>
        </g>
    </g>
</svg>